<svg xmlns="http://www.w3.org/2000/svg" width="18.6" height="18.605" viewBox="0 0 18.6 18.605">
  <g id="cart" transform="translate(0.25 0.256)">
    <path id="Cart-2" data-name="Cart" d="M1781.531,36.84h-3.068l-3.972-5.706c-.311-.446-.552-.894-1.3-.866,0,0-.551-.1-1.165.866l-4.479,5.706h-2.468a.818.818,0,0,0-.823.823h0a11.241,11.241,0,0,0,2.468,7.409,8.224,8.224,0,0,0,13.163,0,11.245,11.245,0,0,0,2.468-7.409h0A.818.818,0,0,0,1781.531,36.84Zm-8.343-4.7c.019-.027,3.351,4.7,3.351,4.7h-7.028Zm.116,14.583c-3.907,0-7.169-3.829-7.4-8.232h14.809C1780.473,42.889,1777.211,46.718,1773.3,46.718Z" transform="translate(-1764.254 -30.265)" fill="#fff"/>
  </g>
</svg>
