<svg xmlns="http://www.w3.org/2000/svg" width="20" height="17" viewBox="0 0 18 15">
  <path id="Union_73" data-name="Union 73" d="M11.061,14.787l-2.7-2.654a.874.874,0,0,1,0-1.248l2.7-2.654a.911.911,0,0,1,1.221.046.875.875,0,0,1,.047,1.2l-1.161,1.141H13.05a3.1,3.1,0,1,0,0-6.195.885.885,0,1,1,0-1.77,4.93,4.93,0,0,1,3.5,1.434A4.753,4.753,0,0,1,18,7.522a4.917,4.917,0,0,1-4.95,4.867H11.169L12.33,13.54a.874.874,0,0,1-.047,1.2.911.911,0,0,1-1.221.046ZM0,7.522A4.918,4.918,0,0,1,4.95,2.655H6.831L5.661,1.514a.876.876,0,0,1,0-1.253.912.912,0,0,1,1.274,0l2.7,2.654a.861.861,0,0,1,0,1.248L6.93,6.814a.911.911,0,0,1-.894.285.894.894,0,0,1-.665-.654.878.878,0,0,1,.29-.879l1.17-1.141H4.95a3.1,3.1,0,1,0,0,6.195.885.885,0,1,1,0,1.77A4.918,4.918,0,0,1,0,7.522Z" fill="#fff" />
</svg>
