<svg xmlns="http://www.w3.org/2000/svg" width="75.864" height="75.581" viewBox="0 0 75.864 75.581">
  <path id="feature-icon2" d="M1.472,75a1.465,1.465,0,1,1,0-2.93H10.55V66.729a14.49,14.49,0,0,1,9.482-13.565l9.937-3.633a.992.992,0,0,0,.711-.87V44.534a1.475,1.475,0,0,1,.039-.33l-4.441-2.54-.08-.049a7.9,7.9,0,0,1-3.343-6.023c0-.037,0-.075,0-.112V32.086L20.868,30.1a13.057,13.057,0,0,1,0-18.441l8.878-8.88a9.424,9.424,0,0,1,9.678-2.3,8.712,8.712,0,0,1,5.734,6.129L55.045,16.5a8.062,8.062,0,0,1,0,11.386l-.642.642a5.368,5.368,0,0,1-2.275,1.356c0,.048.007.1.007.145V35.48c0,.037,0,.075,0,.112a7.913,7.913,0,0,1-3.367,6.023c-.026.016-.052.033-.078.048L44.263,44.2a1.47,1.47,0,0,1,.04.335v4.126a1,1,0,0,0,.719.874l9.93,3.631A14.491,14.491,0,0,1,64.435,66.73V72.07h9.078a1.465,1.465,0,1,1,0,2.93Zm48.54-14.989a5.352,5.352,0,0,1,5.345,5.346V72.07h6.15V66.73a11.552,11.552,0,0,0-7.56-10.814l-9.939-3.633a3.894,3.894,0,0,1-2.634-3.622v-2.8l-.555.319a6.022,6.022,0,0,1-6.652,0l-.559-.319v2.8a3.889,3.889,0,0,1-2.625,3.618l-9.947,3.637a11.55,11.55,0,0,0-7.559,10.813V72.07h6.15V65.357a5.352,5.352,0,0,1,5.344-5.346h6.761a1.465,1.465,0,0,1,0,2.93H24.973a2.419,2.419,0,0,0-2.416,2.417V72.07H52.428V65.357a2.419,2.419,0,0,0-2.417-2.417H43.228a1.465,1.465,0,0,1,0-2.93ZM25.778,32.117v3.3a4.968,4.968,0,0,0,2,3.725l7.884,4.509c.028.015.054.032.081.049a3.1,3.1,0,0,0,3.505,0c.026-.017.052-.033.079-.049l7.861-4.509a5.037,5.037,0,0,0,2.021-3.726V30.033c0-.032,0-.065.005-.1a5.363,5.363,0,0,1-2.447-1.4l-8.7-8.7ZM24.354,29.4,40.8,12.948a5.857,5.857,0,0,0,.374-7.859,8.743,8.743,0,0,1-2.556,5.676l-3.727,3.728a1.464,1.464,0,0,1-2.07-2.072l3.727-3.728a5.825,5.825,0,0,0,1.536-5.549,6.5,6.5,0,0,0-6.267,1.709l-8.878,8.88a10.124,10.124,0,0,0,0,14.3L24.3,29.4h.01ZM42.87,15.019l-2.737,2.738,8.7,8.7a2.476,2.476,0,0,0,3.5,0l.641-.642a5.128,5.128,0,0,0,0-7.243l-7.757-7.761A8.736,8.736,0,0,1,42.87,15.019ZM36.7,62.511a1.463,1.463,0,1,1,1.036.429A1.469,1.469,0,0,1,36.7,62.511Zm24.33-12.6a1.464,1.464,0,0,1-.237-2.057,3.09,3.09,0,0,0,0-3.862l-1.159-1.454a6.007,6.007,0,0,1-.006-7.508L60.8,33.553a1.464,1.464,0,1,1,2.293,1.821l-1.174,1.48a3.089,3.089,0,0,0,0,3.861l1.159,1.454a6.008,6.008,0,0,1,.006,7.508,1.464,1.464,0,0,1-2.058.237Zm-58.313,0a1.464,1.464,0,0,1-.237-2.057,3.089,3.089,0,0,0,0-3.862L1.321,42.539a6.005,6.005,0,0,1-.006-7.508l1.173-1.479a1.464,1.464,0,1,1,2.294,1.821l-1.174,1.48a3.088,3.088,0,0,0,0,3.861l1.158,1.454a6.007,6.007,0,0,1,.007,7.508,1.464,1.464,0,0,1-2.058.237ZM71.629,44.1a1.465,1.465,0,0,1-.237-2.058,3.089,3.089,0,0,0,0-3.861l-1.159-1.455a6.006,6.006,0,0,1-.006-7.507l1.174-1.48a1.464,1.464,0,1,1,2.293,1.822l-1.173,1.48a3.089,3.089,0,0,0,0,3.861l1.159,1.455a6.005,6.005,0,0,1,.006,7.507,1.465,1.465,0,0,1-2.057.237Zm-58.313,0a1.465,1.465,0,0,1-.237-2.058,3.089,3.089,0,0,0,0-3.861l-1.159-1.454a6.008,6.008,0,0,1-.006-7.508l1.174-1.479a1.464,1.464,0,1,1,2.293,1.821L14.2,31.04a3.089,3.089,0,0,0,0,3.861l1.159,1.455a6,6,0,0,1,.006,7.507,1.465,1.465,0,0,1-2.057.237Zm21.648-5.686A1.464,1.464,0,1,1,36.7,36.058a1.322,1.322,0,0,0,1.574,0A1.465,1.465,0,1,1,40.027,38.4a4.252,4.252,0,0,1-5.064.013ZM29.2,18.12a1.465,1.465,0,1,1,1.035.428A1.476,1.476,0,0,1,29.2,18.12Z" transform="translate(0.432 0.331)" fill="#252525" stroke="#fff" stroke-width="0.5"/>
</svg>
