<svg xmlns="http://www.w3.org/2000/svg" width="60.205" height="75" viewBox="0 0 60.205 75">
  <path id="feature-icon3" d="M-6616.681,73.772l-.015-.007a.167.167,0,0,0-.023-.013c-.254-.142-.5-.294-.744-.458a7.078,7.078,0,0,1-1.748,1.016,7.154,7.154,0,0,1-2.668.508,7.635,7.635,0,0,1-2.444-.4q-.69.053-1.4.052h-16.823a16.52,16.52,0,0,1-11.278-4.2,18.858,18.858,0,0,1-5.667-10.145,23.936,23.936,0,0,1,2.023-15.583q.539-1.086,1.177-2.113a.107.107,0,0,1,.012-.02,27.135,27.135,0,0,1,9.877-9.281,5.036,5.036,0,0,1-2.233-4.184V26.58a2.682,2.682,0,0,1,2.681-2.678h23.642a2.683,2.683,0,0,1,2.681,2.678v2.359a5.039,5.039,0,0,1-2.235,4.184A26.7,26.7,0,0,1-6610.8,44.536a24.485,24.485,0,0,1,1.782,4.819l5.565-3.039a1.946,1.946,0,0,1,1.9-.057,1.939,1.939,0,0,1,.959,1.636l.364,5.612a1.1,1.1,0,0,1-1.026,1.167,1.1,1.1,0,0,1-1.167-1.025l-.338-5.209-5.792,3.166-2.051,1.12-1.973,1.078a14.442,14.442,0,0,0-6.289,6.2c-.013.028-.027.059-.042.089a9.841,9.841,0,0,0-.953,4.189,8.88,8.88,0,0,0,2.073,5.8,7.852,7.852,0,0,0,.941.929c.015.012.026.023.042.035.079.065.161.125.243.187l1.362-2.476-1.25-4.314a1.1,1.1,0,0,1,.749-1.361,1.1,1.1,0,0,1,1.362.749l.638,2.2,3.8-6.9a1.1,1.1,0,0,1,1.493-.433,1.1,1.1,0,0,1,.431,1.493l-1.294,2.35,2.2-.639a1.1,1.1,0,0,1,1.36.751,1.1,1.1,0,0,1-.749,1.361l-4.311,1.25-3.868,7.026a8.647,8.647,0,0,0,7.643-.936c3.492-2.217,5.3-6.5,4.958-11.758l-.049-.741a1.1,1.1,0,0,1,1.023-1.168,1.1,1.1,0,0,1,1.17,1.023l.048.742c.395,6.083-1.784,11.1-5.974,13.757a11.22,11.22,0,0,1-6.008,1.78A10.061,10.061,0,0,1-6616.681,73.772Zm-11.1-10.571c-.646,3.417.184,6.36,2.271,8.077a6.042,6.042,0,0,0,1.5.908,5.241,5.241,0,0,0,3.983.084,4.759,4.759,0,0,0,.852-.446,8.743,8.743,0,0,1-.593-.7,11.131,11.131,0,0,1-2.285-6.849,11.98,11.98,0,0,1,.817-4.326l-5.218-3.741Zm-29.559-3.549c1.319,6.1,5.9,12.617,14.8,12.617h14.877c-2.167-2.275-2.994-5.665-2.273-9.476l1.479-7.8a1.669,1.669,0,0,1,1-1.285,1.676,1.676,0,0,1,1.615.236l5.595,4.012a17.208,17.208,0,0,1,6.626-6.076l2.638-1.439a22.229,22.229,0,0,0-1.449-4.313c-9.459-3.335-14.578-1.678-21.254,1.224a19.333,19.333,0,0,1-7,1.513h-.042a1.1,1.1,0,0,1-1.1-1.058,1.1,1.1,0,0,1,1.058-1.138,17.157,17.157,0,0,0,6.205-1.331c6.41-2.787,11.786-4.585,20.607-2.011a25.549,25.549,0,0,0-11.055-9.346h-18.232a25.708,25.708,0,0,0-10.722,8.841,19.446,19.446,0,0,0,8.729,3.552,1.1,1.1,0,0,1,.9,1.264,1.1,1.1,0,0,1-1.083.919,1.138,1.138,0,0,1-.182-.017,21.857,21.857,0,0,1-9.518-3.826A21.864,21.864,0,0,0-6657.341,59.652Zm10.9-33.072v2.359a2.844,2.844,0,0,0,2.838,2.842h18.934a2.844,2.844,0,0,0,2.838-2.842V26.58a.489.489,0,0,0-.484-.48h-23.642A.489.489,0,0,0-6646.437,26.58Zm16.881-7.86a1.1,1.1,0,0,1-.038-1.555c1.319-1.384.909-2.171.167-3.6-.834-1.608-1.978-3.813.871-6.513a1.1,1.1,0,0,1,1.551.04,1.1,1.1,0,0,1-.041,1.553c-1.648,1.563-1.215,2.4-.431,3.908s1.872,3.612-.526,6.131a1.094,1.094,0,0,1-.8.341A1.094,1.094,0,0,1-6629.556,18.72Zm-10-.433a1.1,1.1,0,0,1-.037-1.555c2.482-2.606,1.6-4.3.385-6.655-1.326-2.558-2.978-5.744,1.278-9.777a1.1,1.1,0,0,1,1.553.042,1.1,1.1,0,0,1-.042,1.553c-3.054,2.9-2.125,4.69-.839,7.173,1.255,2.422,2.82,5.439-.744,9.18a1.093,1.093,0,0,1-.8.341A1.1,1.1,0,0,1-6639.552,18.287Z" transform="translate(6660.001 0.001)"/>
</svg>
