<svg xmlns="http://www.w3.org/2000/svg" width="77.3" height="75.3" viewBox="0 0 77.3 75.3">
  <path id="feature-icon1" d="M70.158,54.886H61.732a6.085,6.085,0,0,0,.551-1.141,5.891,5.891,0,0,0-1.8-6.591l-10-8.276A11.726,11.726,0,0,0,27.7,38.269l-2.516-8.832A11.749,11.749,0,1,0,9.859,25.88a12,12,0,0,0-3.736,8.734V54.924A6.863,6.863,0,0,0,6.811,68.61v4.057a1.392,1.392,0,1,0,2.783,0V68.61h3.5V79.591h-3.5v-.282a1.392,1.392,0,1,0-2.783,0v1.678a1.394,1.394,0,0,0,1.392,1.4h6.285a1.394,1.394,0,0,0,1.392-1.4v-1.31l22.375-10.91L60.993,79.853c.042.021.085.038.128.054v1.08a1.394,1.394,0,0,0,1.392,1.4H68.8a1.394,1.394,0,0,0,1.392-1.4V68.609a6.862,6.862,0,0,0-.031-13.723ZM50.681,42.665l8.026,6.642a3.151,3.151,0,0,1-2,5.58h-16.3v-1.8a11.66,11.66,0,0,0,5.833-2.419,1.391,1.391,0,0,0,.364.05h5.071a1.4,1.4,0,0,0,0-2.791h-2.9A11.718,11.718,0,0,0,50.681,42.665ZM39.013,32.416A8.98,8.98,0,1,1,30.06,41.4,8.977,8.977,0,0,1,39.013,32.416Zm-9.763,15.5h-2.9a1.4,1.4,0,0,0,0,2.791h4.805a1.382,1.382,0,0,0,.549-.113,11.662,11.662,0,0,0,5.914,2.483v1.8h-16.3a3.151,3.151,0,0,1-2-5.58l8.027-6.642A11.718,11.718,0,0,0,29.251,47.92ZM19.482,10.173a8.98,8.98,0,1,1-8.954,8.98A8.977,8.977,0,0,1,19.482,10.173ZM8.906,34.613a9.228,9.228,0,0,1,2.8-6.65A11.672,11.672,0,0,0,22.593,30.5l2.877,10.1-4.231,3.5L19.1,37.648a1.392,1.392,0,1,0-2.641.88L18.937,46l-1.389,1.149a5.892,5.892,0,0,0-1.8,6.592,6.089,6.089,0,0,0,.551,1.141H8.906Zm6.973,41.959V68.61h16.33Zm51.527,3.018H63.9V68.61h3.5Zm2.752-13.772H58.26a1.4,1.4,0,0,0,0,2.791h2.861v8.2L44.3,68.61h6.451a1.4,1.4,0,0,0,0-2.791H6.842a4.071,4.071,0,0,1,0-8.141H70.158a4.071,4.071,0,0,1,0,8.141Z" transform="translate(0.15 -7.232)" fill="#050505" stroke="#fff" stroke-width="0.3"/>
</svg>
