<svg xmlns="http://www.w3.org/2000/svg" width="16.86" height="15" viewBox="0 0 16.86 15">
  <path id="heart" d="M8.43,15a.989.989,0,0,1-.652-.245C7.1,14.16,6.44,13.6,5.861,13.106l0,0A35.656,35.656,0,0,1,1.672,9.175,6.275,6.275,0,0,1,0,5.067a5.27,5.27,0,0,1,1.338-3.6A4.534,4.534,0,0,1,4.71,0,4.241,4.241,0,0,1,7.359.914,5.42,5.42,0,0,1,8.43,2.033,5.42,5.42,0,0,1,9.5.914,4.241,4.241,0,0,1,12.15,0a4.534,4.534,0,0,1,3.372,1.468,5.27,5.27,0,0,1,1.337,3.6,6.275,6.275,0,0,1-1.672,4.108A35.648,35.648,0,0,1,11,13.1c-.58.494-1.238,1.055-1.921,1.652A.989.989,0,0,1,8.43,15ZM4.71.988a3.557,3.557,0,0,0-2.646,1.15A4.287,4.287,0,0,0,.988,5.067,5.28,5.28,0,0,0,2.433,8.544,35.087,35.087,0,0,0,6.5,12.352l0,0c.582.5,1.241,1.057,1.927,1.657.69-.6,1.351-1.164,1.933-1.66a35.093,35.093,0,0,0,4.066-3.807,5.281,5.281,0,0,0,1.445-3.478A4.287,4.287,0,0,0,14.8,2.137,3.557,3.557,0,0,0,12.15.988a3.276,3.276,0,0,0-2.045.708,4.792,4.792,0,0,0-1.14,1.319.623.623,0,0,1-1.071,0A4.788,4.788,0,0,0,6.755,1.7,3.275,3.275,0,0,0,4.71.988Zm0,0" fill="#f81781"/>
</svg>
