<svg xmlns="http://www.w3.org/2000/svg" width="18.498" height="18.498" viewBox="0 0 18.498 18.498">
  <path id="love" d="M1732.993,48a.712.712,0,0,1-.529-.251l-6.972-7.912a6.314,6.314,0,0,1-.008-8.145,4.681,4.681,0,0,1,7.21.008l.31.352.3-.344a4.682,4.682,0,0,1,7.209,0,6.332,6.332,0,0,1-.007,8.149l-6.987,7.9A.711.711,0,0,1,1732.993,48Zm-3.909-16.33a3.365,3.365,0,0,0-2.537,1.2,4.51,4.51,0,0,0,0,5.809l6.443,7.313,6.458-7.3a4.523,4.523,0,0,0,0-5.813,3.3,3.3,0,0,0-5.086,0l-.832.944a.69.69,0,0,1-1.062,0l-.839-.952A3.379,3.379,0,0,0,1729.083,31.667Z" transform="translate(-1723.749 -29.749)" fill="#fff"/>
</svg>