<svg xmlns="http://www.w3.org/2000/svg" width="74.761" height="75" viewBox="0 0 74.761 75">
  <path id="service-icon3" d="M21.228,75H5.794a3.732,3.732,0,0,1-3.733-3.41L.016,49.09A3.75,3.75,0,0,1,3.75,45H6.062l1.2-28.8A1.25,1.25,0,0,1,8.511,15h10a1.25,1.25,0,0,1,1.249,1.2l1.2,28.8h2.313a3.75,3.75,0,0,1,3.735,4.09l-2.046,22.5A3.732,3.732,0,0,1,21.245,75Zm0-2.5a1.243,1.243,0,0,0,1.245-1.137L23.506,60H3.517L4.55,71.363A1.244,1.244,0,0,0,5.794,72.5ZM2.826,47.907a1.237,1.237,0,0,0-.322.956L3.289,57.5H23.733l.785-8.637A1.25,1.25,0,0,0,23.274,47.5H3.743A1.236,1.236,0,0,0,2.826,47.907ZM8.565,45h9.894L17.313,17.5h-7.6ZM33.511,75a1.25,1.25,0,0,1-1.25-1.25v-45a11.293,11.293,0,0,1,5-9.356V17.5a6.257,6.257,0,0,1,6.25-6.25h7.5a6.257,6.257,0,0,1,6.25,6.25v1.894a11.293,11.293,0,0,1,5,9.356v45A1.25,1.25,0,0,1,61.011,75Zm1.25-46.25V72.5h25V28.75a8.78,8.78,0,0,0-2.5-6.12V40a3.754,3.754,0,0,1-3.75,3.75h-12.5A3.754,3.754,0,0,1,37.261,40V22.63A8.78,8.78,0,0,0,34.761,28.75Zm5-11.25V40a1.251,1.251,0,0,0,1.25,1.25h12.5A1.251,1.251,0,0,0,54.761,40V17.5a3.755,3.755,0,0,0-3.75-3.75h-7.5A3.755,3.755,0,0,0,39.761,17.5Zm1.25,38.75a1.25,1.25,0,1,1,0-2.5h12.5a1.25,1.25,0,0,1,0,2.5Zm2.5-5a1.25,1.25,0,0,1,0-2.5h7.5a1.25,1.25,0,1,1,0,2.5ZM68.518,30.128c-.113-1.107-.68-4.854-3.215-6.6a1.25,1.25,0,0,1,.05-2.092c2.4-1.49,3-3.68,3.161-6.508a1.25,1.25,0,0,1,2.5.082c-.04,4.252,2.381,5.977,3.124,6.405a1.25,1.25,0,0,1,.085,2.113c-2.535,1.744-3.1,5.491-3.215,6.6a1.25,1.25,0,0,1-2.487,0ZM68,22.57a9.912,9.912,0,0,1,1.761,2.647,9.913,9.913,0,0,1,1.752-2.637,8.567,8.567,0,0,1-1.753-2.256A8.137,8.137,0,0,1,68,22.57ZM42.261,28.75v-10a1.25,1.25,0,1,1,2.5,0v10a1.25,1.25,0,1,1-2.5,0ZM29.768,16.378c-.113-1.107-.68-4.854-3.215-6.6a1.25,1.25,0,0,1,.05-2.092c2.4-1.49,3-3.679,3.161-6.508a1.25,1.25,0,0,1,2.5.082c-.04,4.252,2.381,5.977,3.124,6.405A1.25,1.25,0,0,1,35.47,9.78c-2.535,1.744-3.1,5.491-3.215,6.6a1.25,1.25,0,0,1-2.487,0ZM29.251,8.82a9.9,9.9,0,0,1,1.761,2.647,9.919,9.919,0,0,1,1.752-2.637A8.568,8.568,0,0,1,31.01,6.574,8.133,8.133,0,0,1,29.251,8.82Z" transform="translate(0)" fill="#f81781"/>
</svg>
