<svg xmlns="http://www.w3.org/2000/svg" width="67.5" height="75" viewBox="0 0 67.5 75">
  <path id="service-icon14" d="M0,63.75c0-4.617,5.161-9.39,13.381-12.6-3.747-2.038-4.63-4.522-4.63-6.4,0-3.076,2.344-6.319,6.389-8.994C9.952,34.018,8.75,31.34,8.75,29.25c0-3.4,3.186-6.9,8.089-9.187C12.874,18.686,10,16.552,10,13.25,10,6.438,22.758,0,36.25,0S62.5,6.438,62.5,13.25c0,6.124-9.875,8.238-18.251,8.932,2.838,2.1,4.5,4.635,4.5,7.067a5.1,5.1,0,0,1-.61,2.4c9.148,2.6,15.61,7.95,15.61,13.1,0,2.315-1.329,5.334-7.08,7.5,6.757,3.16,10.829,7.413,10.829,11.5C67.5,73.9,43.9,75,33.75,75S0,73.9,0,63.75Zm2.5,0c0,5.314,12.267,8.749,31.25,8.749S65,69.065,65,63.75c0-3.466-4.845-7.609-12.087-10.376A74.176,74.176,0,0,1,36.25,55c-8.02,0-14.717-.838-19.449-2.411C8.363,55.323,2.5,59.882,2.5,63.75Zm8.75-19c0,2.711,3.233,4.4,5.948,5.344C21.688,51.669,28.273,52.5,36.25,52.5a70.7,70.7,0,0,0,16.46-1.638c3.9-.966,8.54-2.811,8.54-6.112,0-3.608-5.575-8.64-14.929-11-4.176,3.243-12.71,3.75-17.57,3.75a53.514,53.514,0,0,1-10.179-.867C14.053,39.036,11.25,42.124,11.25,44.75Zm0-15.5c0,2.887,4.609,4.278,7.355,4.851A50.888,50.888,0,0,0,28.75,35c8.026,0,14.012-1.286,16.425-3.527A2.982,2.982,0,0,0,46.25,29.25c0-2.234-2.581-4.948-6.437-6.811-1.323.045-2.532.061-3.563.061a80.329,80.329,0,0,1-15.311-1.329C14.647,23.1,11.25,26.75,11.25,29.25Zm1.25-16c0,4.038,9.546,6.75,23.75,6.75S60,17.288,60,13.25C60,8.921,50.026,2.5,36.25,2.5S12.5,8.921,12.5,13.25ZM6.25,65.047H6.2A1.287,1.287,0,0,1,5,63.707c.072-1.957,4.223-6.118,12.914-8.856h0a1.25,1.25,0,1,1,.749,2.385c-8.3,2.613-11.022,6.117-11.178,6.653a1.2,1.2,0,0,1-1.2,1.159ZM56.258,44.863c-.258-.845-3.757-4.53-11.665-6.391a1.251,1.251,0,1,1,.574-2.434c8.36,1.969,13.248,6.177,13.563,8.46a1.251,1.251,0,0,1-1.065,1.411,1.477,1.477,0,0,1-.173.011A1.25,1.25,0,0,1,56.258,44.863ZM15.117,30.256a1.25,1.25,0,0,1-.99-1.969c.906-1.426,3.491-3.539,7.78-4.8a1.245,1.245,0,1,1,.7,2.389c-3.883,1.147-5.868,2.954-6.375,3.75a1.25,1.25,0,0,1-1.085.632Zm.667-16.173a1.25,1.25,0,0,1-.463-1.707c1.018-1.775,4.769-4.421,10.6-6.024a1.25,1.25,0,0,1,.665,2.411c-5.66,1.556-8.57,3.943-9.092,4.857a1.251,1.251,0,0,1-1.707.463Zm23.97-1.629c-4.344-.268-8.66-1.7-8.5-4.282s4.615-3.473,8.965-3.2a18.7,18.7,0,0,1,5.638,1.145c2.465,1,2.919,2.254,2.864,3.136-.143,2.294-3.665,3.25-7.491,3.25Q40.5,12.5,39.754,12.454ZM33.862,8.338c.558.5,2.607,1.419,6.049,1.626s5.586-.449,6.2-.875c-.558-.5-2.6-1.412-6.048-1.626-.461-.029-.9-.042-1.312-.041A9.987,9.987,0,0,0,33.862,8.338Z" fill="red"/>
</svg>
