<svg xmlns="http://www.w3.org/2000/svg" width="93.586" height="75" viewBox="0 0 93.586 75">
  <path id="service-icon2" d="M92.215,72.259H65.046A18.559,18.559,0,0,0,73.9,56.448v-.936H74.9a7.983,7.983,0,0,0,7.974-7.974V45.249A5.851,5.851,0,0,0,73.9,40.293V38.259a4.954,4.954,0,0,0-2.88-4.512c-.019-.015-.038-.031-.058-.046L49.382,17.873l-4.038-3.8a9.727,9.727,0,0,0-.986-.808A5.571,5.571,0,0,0,46.075,11.6L48.044,8.64a5.562,5.562,0,1,0-9.266-6.157L36.81,5.444a5.554,5.554,0,0,0-.92,3.382,4.833,4.833,0,0,0-4.8,2.573l-.37.527A1.371,1.371,0,1,0,32.962,13.5l.426-.606a1.306,1.306,0,0,0,.108-.183,2.1,2.1,0,0,1,2.933-.9l1.187.68.021.012,4.531,2.6a6.93,6.93,0,0,1,1.3.963l3.421,3.217-1.643,4.158-4.734-2.53-1.8-1.116a1.371,1.371,0,1,0-1.447,2.329l.772.479-4.6,9.159L23.3,27.251l6.1-8.679a1.371,1.371,0,0,0-2.243-1.577L20.1,27.037l-.019.03c-.017.026-.034.052-.049.079A.563.563,0,0,0,20,27.2c-.008.014-.016.027-.023.042l-.821,1.748a9.713,9.713,0,0,0,2.1,11.175,1.945,1.945,0,0,0,.075,1.589l2.58,5.077L14.387,66.376a5.962,5.962,0,0,0,.3,5.806c.016.026.035.051.052.078H1.371a1.371,1.371,0,0,0,0,2.742H92.215a1.371,1.371,0,0,0,0-2.742ZM73.9,45.249a3.113,3.113,0,1,1,6.225,0v2.289A5.238,5.238,0,0,1,74.9,52.769H73.9ZM39.094,6.962,41.062,4a2.82,2.82,0,1,1,4.7,3.122l-1.969,2.962a2.8,2.8,0,0,1-2.727,1.232l-1.846-1.06A2.817,2.817,0,0,1,39.094,6.962Zm6.36,63.224H49.73l2.183,2.072H45.455ZM69.672,38.061a2.4,2.4,0,0,0,1.372-.514,2.254,2.254,0,0,1,.116.712V56.448a15.829,15.829,0,0,1-15.273,15.8l-4.31-4.091-.951-7.463h.944a14.811,14.811,0,0,0,12.081-6.25v.949a1.371,1.371,0,1,0,2.742,0V38.259a2.244,2.244,0,0,1,.036-.393,7.448,7.448,0,0,0,1.934.256c.137,0,.274,0,.412-.011Zm-3.78-3.375-.056-.033-18.161-9.9,1.451-3.673L68.606,35.373A4.747,4.747,0,0,1,65.892,34.686Zm-44.253-4.53.25-.531,1.547.691L33.505,34.8l.009,0L45.06,39.949a.328.328,0,0,1,.19.256L46.6,50.8a1.371,1.371,0,1,0,2.72-.347l-1.35-10.6a3.086,3.086,0,0,0-1.8-2.414L35.943,32.886l4.476-8.908L45.3,26.59,63.892,36.718a4.984,4.984,0,0,0-.243,1.542V45.87A12.1,12.1,0,0,1,51.57,57.952H50.276l-.291-2.279a1.371,1.371,0,1,0-2.72.346l.437,3.429c0,.02,0,.039.007.059l1.012,7.936H45.093L38.116,45a3.07,3.07,0,0,0-2.01-2.016l-9.533-2.995-.018-.006-.6-.179a6.976,6.976,0,0,1-4.315-9.65Zm11.081,19.2L33.8,45.137l1.482.466a.324.324,0,0,1,.213.213l3.892,12.519a8.212,8.212,0,0,0-.909.341L29.8,62.554Zm-7.551-6.921.591.177,5.423,1.7-.745,2.9-4.013-1.5-1.754-3.45C24.834,42.329,25,42.383,25.169,42.433ZM16.852,67.578l9.28-19.04L29.79,49.9,26.53,64.62a1.371,1.371,0,0,0,1.9,1.548L39.6,61.18a5.47,5.47,0,0,1,.609-.223l2.508,8.067v3.235H19.779a3.255,3.255,0,0,1-2.927-4.681Zm0,0" transform="translate(0 -0.001)" fill="#f81781"/>
</svg>
