<svg xmlns="http://www.w3.org/2000/svg" width="74.995" height="75" viewBox="0 0 74.995 75">
  <path id="service-icon8" d="M58.29,70V43.874L57.776,41.3a102.465,102.465,0,0,1-1.984-19.806L51.915,11.8a4.708,4.708,0,0,1,1.752-5.641l.089-.059a17.142,17.142,0,0,1,19.068,0l.089.059A4.709,4.709,0,0,1,74.665,11.8l-3.876,9.69A102.467,102.467,0,0,1,68.8,41.3l-.514,2.573V70h0a5,5,0,0,1-10,0Zm2.5,0a2.5,2.5,0,0,0,5,0V45h-5Zm-.563-29.189.338,1.689h5.451l.337-1.689q.823-4.127,1.3-8.311H64.54a1.25,1.25,0,1,1,0-2.5H67.9q.332-3.748.379-7.5H58.3A99.98,99.98,0,0,0,60.226,40.811Zm5.808-27.036a1.25,1.25,0,0,1,.98,1.471L66.064,20h2.629l3.65-9.125a2.2,2.2,0,0,0-.818-2.632l-.089-.059a14.65,14.65,0,0,0-16.294,0l-.089.059a2.2,2.2,0,0,0-.818,2.632L57.886,20h2.63l-.951-4.755a1.25,1.25,0,1,1,2.451-.49L63.065,20h.451l1.048-5.245a1.249,1.249,0,0,1,1.471-.981ZM43.75,75a1.25,1.25,0,0,1-1.25-1.25v-20a1.25,1.25,0,0,1,1.25-1.25V39.668A2.813,2.813,0,0,1,47.452,37l2.452.817a5.618,5.618,0,0,1,3.846,5.337V52.5A1.25,1.25,0,0,1,55,53.75v20A1.25,1.25,0,0,1,53.75,75ZM45,72.5h7.5V60H45Zm0-15h7.5V55H45Zm1.38-18.086a.312.312,0,0,0-.13.254V52.5h5V43.154a3.121,3.121,0,0,0-2.137-2.965l-2.452-.817a.313.313,0,0,0-.282.043ZM10.625,75A10.637,10.637,0,0,1,0,64.375V63.75A1.25,1.25,0,0,1,1.25,62.5H4.188a17.5,17.5,0,1,1,31.625,0H38.75A1.25,1.25,0,0,1,40,63.75v.625A10.637,10.637,0,0,1,29.375,75Zm0-2.5h18.75a8.136,8.136,0,0,0,8.1-7.5H27.285a3.749,3.749,0,0,1-3.535,5h-7.5a3.749,3.749,0,0,1-3.535-5H2.524A8.136,8.136,0,0,0,10.625,72.5ZM15,66.25a1.25,1.25,0,0,0,1.25,1.25h7.5a1.25,1.25,0,0,0,0-2.5h-7.5A1.25,1.25,0,0,0,15,66.25Zm13.414-20.5A12.5,12.5,0,0,1,30,62.5h2.987a15,15,0,1,0-25.983,0H10A12.5,12.5,0,0,1,28.414,45.751ZM23.286,62.5h3.325A9.953,9.953,0,0,0,30,55c0-.332-.017-.659-.049-.983Zm-8.214,0h5.065c.036-.07,9.018-11.516,9.018-11.516a10.046,10.046,0,0,0-2.4-3.352Zm-4.028-3.058a10,10,0,0,0,1.505,2.223L24.713,46.183a9.925,9.925,0,0,0-2.956-1.025ZM12,49a9.984,9.984,0,0,0-1.879,7.513l8.566-11.422A9.984,9.984,0,0,0,12,49ZM26.382,30.56l-.311-.622a6.665,6.665,0,0,0-2.261-2.562l-2-1.336a1.25,1.25,0,0,1,.3-2.226A6.688,6.688,0,0,0,26.314,19.6a1.25,1.25,0,0,1,2.372,0A6.688,6.688,0,0,0,32.9,23.814h0a1.25,1.25,0,0,1,.3,2.226l-2,1.336a6.665,6.665,0,0,0-2.261,2.562l-.311.622a1.25,1.25,0,0,1-2.236,0ZM25,25.165l.2.13a9.167,9.167,0,0,1,2.3,2.2,9.164,9.164,0,0,1,2.3-2.2l.2-.13a9.244,9.244,0,0,1-2.5-2.42A9.247,9.247,0,0,1,25,25.165ZM40.132,23.06l-.311-.622a6.667,6.667,0,0,0-2.261-2.562l-2-1.336h0a1.25,1.25,0,0,1,.3-2.226A6.688,6.688,0,0,0,40.064,12.1a1.25,1.25,0,0,1,2.372,0,6.688,6.688,0,0,0,4.209,4.209,1.25,1.25,0,0,1,.3,2.226l-2,1.335a6.668,6.668,0,0,0-2.261,2.562l-.311.622a1.25,1.25,0,0,1-2.236,0Zm-1.381-5.395.2.13a9.162,9.162,0,0,1,2.3,2.2,9.17,9.17,0,0,1,2.3-2.2l.2-.13a9.249,9.249,0,0,1-2.5-2.42A9.247,9.247,0,0,1,38.751,17.665ZM31.382,11.81l-.311-.622A6.667,6.667,0,0,0,28.81,8.625l-2-1.335a1.25,1.25,0,0,1,.3-2.226A6.688,6.688,0,0,0,31.314.855a1.25,1.25,0,0,1,2.372,0A6.688,6.688,0,0,0,37.9,5.064a1.25,1.25,0,0,1,.3,2.226l-2,1.335a6.668,6.668,0,0,0-2.261,2.562l-.311.622a1.25,1.25,0,0,1-2.236,0ZM30,6.415l.2.13a9.164,9.164,0,0,1,2.3,2.2,9.167,9.167,0,0,1,2.3-2.2l.2-.13A9.247,9.247,0,0,1,32.5,4,9.248,9.248,0,0,1,30,6.415Z" fill="#6a1a9a"/>
</svg>
