<svg xmlns="http://www.w3.org/2000/svg" width="61.306" height="75" viewBox="0 0 61.306 75">
  <path id="service-icon13" d="M29.963,74.617a1.1,1.1,0,0,1,.119-1.549l2.859-2.452V51.972a8.772,8.772,0,0,1-2.267-5.909,8.872,8.872,0,0,1,.345-2.452,8.867,8.867,0,0,1-2.452.345,8.773,8.773,0,0,1-5.917-2.273l-2.927,2.392a3.226,3.226,0,0,0,.04,5.028l4.054,3.208.007.006.012.01a3.692,3.692,0,0,1,.542.535l3.953,3.953a1.1,1.1,0,1,1-1.554,1.554L24.97,56.561a3.705,3.705,0,0,1-.832,1.277l-.53.53a1.1,1.1,0,1,1-1.554-1.554l.53-.53a1.491,1.491,0,0,0,.439-1.155,1.578,1.578,0,0,0-.62-1.136l-4-3.169a5.423,5.423,0,0,1-.066-8.452l2.746-2.245L16.047,35.1a8.8,8.8,0,0,1-2.579-6.033L7.686,33.28a4.743,4.743,0,0,1-5.744-.04A4.743,4.743,0,0,1,.3,27.736L4.785,15.351l-2.628.234A1.1,1.1,0,1,1,1.961,13.4l4.346-.387a1.1,1.1,0,0,1,1.131,1.468L2.367,28.483a2.558,2.558,0,0,0,.894,3,2.558,2.558,0,0,0,3.13.022l7.539-5.5a8.811,8.811,0,0,1,7.312-5.928L46.708.232a1.1,1.1,0,0,1,1.774.867V6.406a1.1,1.1,0,0,1-2.2,0V3.348L24.532,20.3a8.779,8.779,0,0,1,3.995,2.279l.02.018.009.01,6.261,6.261a8.844,8.844,0,0,1,2.238,8.7,8.85,8.85,0,0,1,8.707,2.242l.894.894A12.815,12.815,0,0,1,61.306,53.381a12.756,12.756,0,0,1-.77,4.383,1.1,1.1,0,0,1-2.064-.753,10.616,10.616,0,0,0-9.746-14.234l3.306,3.306a8.838,8.838,0,0,1-12.5,12.5l-.6-.6a10.613,10.613,0,0,0,17.5,2.431,1.1,1.1,0,1,1,1.645,1.457,12.8,12.8,0,0,1-22.309-7.051l-.636-.636V71.12A1.684,1.684,0,0,0,36.821,72.8h2.461a1.1,1.1,0,1,1,0,2.2H36.821a3.882,3.882,0,0,1-3.357-1.938l-1.951,1.674a1.1,1.1,0,0,1-1.549-.119Zm4.853-33.25a6.64,6.64,0,0,0,0,9.391l6.27,6.27a6.64,6.64,0,0,0,9.391-9.391l-4.968-4.968-.018-.018-1.284-1.284a6.64,6.64,0,0,0-9.391,0ZM31.648,32.91a1.1,1.1,0,0,1-.155,1.546L24.378,40.27a6.641,6.641,0,0,0,8.885-9.848l-5.493-5.493-1.728,1.727A1.1,1.1,0,0,1,24.488,25.1L26.15,23.44a6.639,6.639,0,0,0-9.26,9.26l4.491-4.491a1.1,1.1,0,1,1,1.554,1.554L18.378,34.32l4.411,4.411L30.1,32.754a1.1,1.1,0,0,1,1.546.155Zm7.547,19.74-1.38-1.38a1.1,1.1,0,0,1,1.554-1.554l1.38,1.38a1.1,1.1,0,1,1-1.554,1.554Zm2.9-2.9-1.38-1.38a1.1,1.1,0,0,1,1.554-1.554l1.38,1.38a1.1,1.1,0,1,1-1.554,1.554Z" transform="translate(0)" fill="red"/>
</svg>
