<svg xmlns="http://www.w3.org/2000/svg" width="74.043" height="75.199" viewBox="0 0 74.043 75.199">
  <path id="service-icon6" d="M-8814.732,74.944l-29.123-9.318h-3.332a1.16,1.16,0,0,1-.5-.116l-24.37-11.6h-6.766A1.171,1.171,0,0,1-8880,52.733a1.17,1.17,0,0,1,1.172-1.17h7.031a1.164,1.164,0,0,1,.5.114l24.369,11.6h6.513l12.627-5.739,16.187-8.636a5.842,5.842,0,0,0-6.322-.706,1.175,1.175,0,0,1-1.574-.524,1.175,1.175,0,0,1,.524-1.573,8.191,8.191,0,0,1,10.218,2.411,1.175,1.175,0,0,1,.207.958,1.171,1.171,0,0,1-.593.78l-17.579,9.376a.521.521,0,0,1-.064.031l-11.577,5.264,23.241,7.437a3.373,3.373,0,0,0-2.257-3.766l-3.231-1.076a1.17,1.17,0,0,1-.742-1.482,1.175,1.175,0,0,1,1.481-.742l3.231,1.079a5.709,5.709,0,0,1,3.475,3.236,5.726,5.726,0,0,1-.167,4.745,1.179,1.179,0,0,1-1.05.646A1.169,1.169,0,0,1-8814.732,74.944Zm-13.675-10.223a1.17,1.17,0,0,1,.871-1.408l18.266-4.3a5.588,5.588,0,0,0-5.3-1.692,1.171,1.171,0,0,1-1.391-.9,1.171,1.171,0,0,1,.9-1.391,7.931,7.931,0,0,1,8.761,4.21,1.17,1.17,0,0,1,.013,1.021,1.177,1.177,0,0,1-.793.644L-8827,65.595a1.177,1.177,0,0,1-.268.031A1.172,1.172,0,0,1-8828.407,64.721Zm-16.409-7.045a1.173,1.173,0,0,1,.892-1.4l10.261-2.28,7.944-6.811,3.7-3.7a3.811,3.811,0,0,0-4.415.7,1.5,1.5,0,0,1-.146.125l-8.2,5.859a1.177,1.177,0,0,1-.487.2l-7.031,1.172a1.186,1.186,0,0,1-.74-.12c-3.646-1.919-14.024-6.9-18.2-6.9a1.173,1.173,0,0,1-1.172-1.172,1.172,1.172,0,0,1,1.172-1.172c5.173,0,16.73,5.839,18.943,6.982l6.378-1.063,7.907-5.647a6.152,6.152,0,0,1,8.615.071,1.174,1.174,0,0,1,0,1.658l-4.688,4.687a.565.565,0,0,1-.064.06l-8.2,7.031a1.153,1.153,0,0,1-.508.256l-10.548,2.342a1.176,1.176,0,0,1-.255.028A1.173,1.173,0,0,1-8844.816,57.676Zm.445-10.969c-2.324-1.729-3.871-2.911-4.729-3.613a21.508,21.508,0,0,0-8.87-4.248,1.171,1.171,0,0,1-.9-1.275,1.172,1.172,0,0,1,1.165-1.041,1.181,1.181,0,0,1,.266.031,23.846,23.846,0,0,1,9.823,4.716c1.017.833,3.087,2.389,4.647,3.548a1.171,1.171,0,0,1,.412,1.31,1.175,1.175,0,0,1-1.114.8A1.159,1.159,0,0,1-8844.371,46.707Zm-35.612-6.679a1.169,1.169,0,0,1,.791-1.3l3.536-1.157a39.787,39.787,0,0,1,8.54-1.654,1.171,1.171,0,0,1,1.262,1.074,1.174,1.174,0,0,1-1.076,1.264,37.158,37.158,0,0,0-8.027,1.553l-3.506,1.146a1.189,1.189,0,0,1-.363.058A1.169,1.169,0,0,1-8879.983,40.028Zm17.646-1.814c-.026,0-.051,0-.075,0a1.18,1.18,0,0,1-1.1-1.244,1.183,1.183,0,0,1,1.228-1.117,1.182,1.182,0,0,1,1.135,1.21,1.182,1.182,0,0,1-1.182,1.154Zm33.9-.713a13.96,13.96,0,0,1-9.948-4.163,14.223,14.223,0,0,1-4.114-10.031,14.846,14.846,0,0,1,1.634-5.959,1.169,1.169,0,0,1,1.063-.684,1.145,1.145,0,0,1,.488.107,1.171,1.171,0,0,1,.577,1.553,12.977,12.977,0,0,0-1.417,4.983,11.842,11.842,0,0,0,3.437,8.384,11.628,11.628,0,0,0,8.281,3.465,11.635,11.635,0,0,0,8.284-3.465,11.855,11.855,0,0,0,3.437-8.384,13.966,13.966,0,0,0-1.676-5.531,54.89,54.89,0,0,0-3.965-6.7c-2.35-3.463-4.814-6.548-6.08-8.083-.372.455-.762.934-1.154,1.426-1.121,1.4-2.806,3.588-4.475,6a1.174,1.174,0,0,1-1.632.3,1.171,1.171,0,0,1-.3-1.629c3.16-4.575,6.318-8.275,6.668-8.683l0,0a1.17,1.17,0,0,1,.887-.408,1.176,1.176,0,0,1,.89.406l0,0c.191.225,1.943,2.271,4.123,5.164a72.8,72.8,0,0,1,6.911,10.717,26.7,26.7,0,0,1,1.528,3.642,11.22,11.22,0,0,1,.608,3.374,14.219,14.219,0,0,1-4.111,10.029,13.955,13.955,0,0,1-9.946,4.165Zm-1-6.082a1.085,1.085,0,0,1,1.084-1.083,1.085,1.085,0,0,1,1.083,1.083,1.085,1.085,0,0,1-1.083,1.085A1.085,1.085,0,0,1-8829.439,31.419Zm4.571-.92a1.171,1.171,0,0,1,.439-1.31,7.222,7.222,0,0,0,3.021-5.881,1.172,1.172,0,0,1,1.173-1.17,1.172,1.172,0,0,1,1.172,1.17,9.566,9.566,0,0,1-4.01,7.791,1.171,1.171,0,0,1-.677.216A1.173,1.173,0,0,1-8824.868,30.5Zm-13.322-15.8a1.171,1.171,0,0,1-.4-1.607v0a1.172,1.172,0,0,1,1.609-.4,1.172,1.172,0,0,1,.4,1.609,1.169,1.169,0,0,1-1,.567A1.163,1.163,0,0,1-8838.19,14.7Z" transform="translate(8880.107 0.1)" fill="#f81781" stroke="#f81781" stroke-width="0.2"/>
</svg>
