<svg xmlns="http://www.w3.org/2000/svg" width="60.385" height="75.1" viewBox="0 0 60.385 75.1">
  <path id="service-icon10" d="M43.61,75a1.1,1.1,0,1,1,0-2.2h8.563A2.934,2.934,0,0,0,55.1,69.872V25.258a5.081,5.081,0,0,0-5.075-5.075h-18.7a5.081,5.081,0,0,0-5.075,5.075V49.118a1.1,1.1,0,1,1-2.2,0V25.258a7.28,7.28,0,0,1,7.272-7.272h.231v-2.8A1.947,1.947,0,0,1,33.5,13.243H35.7V7.927H33.038a1.482,1.482,0,0,1-1.481-1.481V1.481A1.482,1.482,0,0,1,33.038,0H46.094a18.7,18.7,0,0,1,9.333,2.5l4,2.308a1.672,1.672,0,0,1-.835,3.12H45.66v5.315h2.194A1.947,1.947,0,0,1,49.8,15.187v2.8h.231A7.28,7.28,0,0,1,57.3,25.258V69.872A5.134,5.134,0,0,1,52.173,75ZM33.754,17.986H47.6V15.44H33.754Zm4.138-4.743h5.57V7.927h-5.57ZM33.754,5.73H56.63L54.329,4.4A16.5,16.5,0,0,0,46.094,2.2H33.754ZM10.846,75a4.236,4.236,0,0,1-4.232-4.232V59.875a7.71,7.71,0,0,1,7.7-7.7h5.739v-.635H2.2V70.787A2.018,2.018,0,0,0,4.213,72.8h.422a1.1,1.1,0,0,1,0,2.2H4.213A4.218,4.218,0,0,1,0,70.787V32.69a1.1,1.1,0,0,1,2.2,0v3.823H20.055V28.979a2.018,2.018,0,0,0-2.016-2.016H4.213a2.024,2.024,0,0,0-2,1.732,1.1,1.1,0,0,1-2.176-.308,4.235,4.235,0,0,1,3.534-3.571V22.98a1.836,1.836,0,0,1,1.834-1.834h.4V12.659a2.315,2.315,0,0,1,2.313-2.313H14.13a2.316,2.316,0,0,1,2.313,2.313v8.487h.4a1.836,1.836,0,0,1,1.834,1.834v1.834a4.219,4.219,0,0,1,3.574,4.165V37.6s0,0,0,.007V50.439s0,0,0,.007v1.727H34.075a7.71,7.71,0,0,1,7.7,7.7V70.768A4.236,4.236,0,0,1,37.544,75ZM8.812,70.768A2.037,2.037,0,0,0,10.847,72.8h26.7a2.037,2.037,0,0,0,2.035-2.034V62.635H8.812Zm0-10.894v.563H39.579v-.563a5.51,5.51,0,0,0-5.5-5.5H14.316A5.51,5.51,0,0,0,8.812,59.875ZM2.2,49.341H20.055V38.71H2.2ZM5.772,24.766H16.48V23.343H5.772ZM8.007,12.659v8.487h6.238V12.659a.116.116,0,0,0-.116-.116H8.123A.116.116,0,0,0,8.007,12.659ZM43.5,57.357a1.1,1.1,0,0,1,.387-1.5A6.352,6.352,0,0,0,47,50.408V42.577a6.319,6.319,0,1,0-12.637,0v6.541a1.1,1.1,0,1,1-2.2,0V42.577a8.516,8.516,0,1,1,17.032,0v7.831a8.558,8.558,0,0,1-4.187,7.335,1.1,1.1,0,0,1-1.5-.387ZM10.028,15.694v-.1a1.1,1.1,0,0,1,2.2,0v.1a1.1,1.1,0,1,1-2.2,0Z" transform="translate(0.05 0.05)" fill="#6a1a9a" stroke="#050505" stroke-width="0.1"/>
</svg>
