<svg xmlns="http://www.w3.org/2000/svg" width="75" height="75" viewBox="0 0 75 75">
  <path id="service-icon" d="M-8880,75V49.35l9.227,8.073a7.629,7.629,0,0,0,9.271.458l.418-.3a23.255,23.255,0,0,1,13.6-4.359,23.558,23.558,0,0,1,10.015,2.251l13.009,6.162c.452.215.914.414,1.379.6l-7.5-14.174a6.2,6.2,0,0,0-5.5-3.309,4,4,0,0,1-4-4,3.977,3.977,0,0,1,.671-2.217,10.388,10.388,0,0,0,1.748-5.774V26.9a2.708,2.708,0,0,1,2.705-2.7,2.691,2.691,0,0,1,2.418,1.494l3.339,6.769a28.651,28.651,0,0,0,2.813-5.991l1.774-5.322a2.612,2.612,0,0,1,2.481-1.789,2.619,2.619,0,0,1,2.615,2.615v8.315a32.848,32.848,0,0,0,.319,4.56,32.674,32.674,0,0,0,2.577,8.9l7.828,17.331,2.459,3.281A6.687,6.687,0,0,1-8805,68.347,6.662,6.662,0,0,1-8811.653,75Zm41.129-7.258V72.58h27.218a4.238,4.238,0,0,0,4.233-4.234,4.265,4.265,0,0,0-.846-2.54l-14.607-19.476a13.351,13.351,0,0,0-5.722-4.384,4.782,4.782,0,0,1-3.019-4.46,4.822,4.822,0,0,1,.876-2.745l-.168-.382-3.8-7.587a.3.3,0,0,0-.541.127v5.873a12.787,12.787,0,0,1-2.154,7.115,1.569,1.569,0,0,0-.265.875,1.577,1.577,0,0,0,1.575,1.576,8.614,8.614,0,0,1,7.634,4.6l8.67,16.375a25.786,25.786,0,0,0,6.314.8v2.42a28.276,28.276,0,0,1-12.031-2.706l-13.01-6.162c-.118-.056-.243-.094-.362-.148v7.806h-2.419V56.611a21.053,21.053,0,0,0-6.2-.966,20.853,20.853,0,0,0-11.948,3.747V72.58h18.146V67.742Zm-38.709,4.839h15.726V60.826a9.83,9.83,0,0,1-3.994.867,9.891,9.891,0,0,1-6.517-2.45l-5.215-4.561Zm55.263-50.671-1.775,5.323a31.029,31.029,0,0,1-4.624,8.825,2.4,2.4,0,0,0-.477,1.43,2.37,2.37,0,0,0,1.5,2.213,15.755,15.755,0,0,1,6.758,5.18l5.474,7.3-3.359-7.439a35.022,35.022,0,0,1-2.769-9.555,35.242,35.242,0,0,1-.344-4.9V21.97a.2.2,0,0,0-.2-.2A.2.2,0,0,0-8822.317,21.91Zm-50.425,11.961V30.242h15.192a11.093,11.093,0,0,0,2.953-7.551V14.516h2.42v8.175a13.506,13.506,0,0,1-2.285,7.551h6.989a13.506,13.506,0,0,1-2.285-7.551V14.516h2.419v8.175a11.093,11.093,0,0,0,2.953,7.551h3.1v3.629A15.744,15.744,0,0,1-8857.016,49.6,15.744,15.744,0,0,1-8872.742,33.871Zm3.592,5.435a13.32,13.32,0,0,0,12.135,7.871,13.3,13.3,0,0,0,11.2-6.15,54.451,54.451,0,0,1-9.8-2.031,32,32,0,0,0-7.45-1.5A9.92,9.92,0,0,0-8869.15,39.306Zm14.178-2.641a47.571,47.571,0,0,0,10.35,2.014,13.207,13.207,0,0,0,.914-4.808v-1.21h-26.613v1.21a13.255,13.255,0,0,0,.368,3.057,12.871,12.871,0,0,1,6.89-1.847A33.264,33.264,0,0,1-8854.973,36.665Zm5.215-24.568v-1.21h-2.419V12.1h-2.42V10.715a4.827,4.827,0,0,1-3.457-3.457H-8880V4.839h21.946a4.828,4.828,0,0,1,3.457-3.457V0h2.42V1.21h2.419V0h2.419V1.381a4.833,4.833,0,0,1,3.63,4.667,4.833,4.833,0,0,1-3.63,4.667V12.1Zm-2.419-3.629h2.419V3.629h-2.419Zm4.838-.336a2.412,2.412,0,0,0,1.21-2.083,2.412,2.412,0,0,0-1.21-2.083Zm-8.468-2.083a2.408,2.408,0,0,0,1.21,2.082V3.965A2.412,2.412,0,0,0-8855.807,6.048Z" transform="translate(8880)" fill="#f81781"/>
</svg>
