<svg xmlns="http://www.w3.org/2000/svg" width="67.146" height="75.499" viewBox="0 0 67.146 75.499">
  <path id="service-icon5" d="M-8815.206,74.25c0-.007-.363-1.819-2.91-4.2-1.759-1.649-5.96-2.933-9.659-4.065a36.1,36.1,0,0,1-7.216-2.7,9.515,9.515,0,0,1-1.816-1.358,32.2,32.2,0,0,1-13.746,3.529,17.335,17.335,0,0,1-8.317-1.923,42.12,42.12,0,0,1-6.788,2.453c-3.7,1.132-7.9,2.416-9.659,4.065-2.547,2.387-2.91,4.2-2.915,4.214a.9.9,0,0,1-.878.733.888.888,0,0,1-.675-.312.893.893,0,0,1-.205-.715c.04-.238.466-2.422,3.454-5.219,2.063-1.932,6.28-3.223,10.356-4.468.642-.2,1.274-.39,1.887-.583q-.458-.131-.9-.306a.893.893,0,0,1-.595-.693.9.9,0,0,1,.325-.851.893.893,0,0,1,.905-.118,8.4,8.4,0,0,0,2.133.524,5,5,0,0,1-1.07-1.349,2.988,2.988,0,0,1,1.4-3.965,2.672,2.672,0,0,1,2.248.109,3.3,3.3,0,0,1,1.552,1.7,9.641,9.641,0,0,1,.562,1.76,8.2,8.2,0,0,0,2.293-6.4,29.935,29.935,0,0,1-3.822-3.2,19.062,19.062,0,0,1-4.542-7.983c-3.075-.031-5.863-3.067-6.354-6.026a5.513,5.513,0,0,1,1.029-4.763,4.092,4.092,0,0,1,.553-.5,1.885,1.885,0,0,1-.546-1.275c-.016-.49-.056-1.166-.1-1.986-.348-5.926-1.069-18.257,3.143-22.21,3.167-2.973,11.466-6.18,19.347-6.18s16.182,3.207,19.347,6.178c4.212,3.954,3.489,16.284,3.142,22.212-.047.818-.087,1.493-.1,1.981a1.873,1.873,0,0,1-.546,1.277,3.74,3.74,0,0,1,.553.5,5.524,5.524,0,0,1,1.032,4.76c-.49,2.962-3.28,6-6.356,6.026a19.057,19.057,0,0,1-4.539,7.985A29.774,29.774,0,0,1-8838,54.086a8.545,8.545,0,0,0,1.65,5.713.892.892,0,0,1,.864.509.892.892,0,0,1,.079.478,9.554,9.554,0,0,0,1.338.98,35.475,35.475,0,0,0,6.806,2.514c4.079,1.248,8.293,2.536,10.356,4.468,2.991,2.8,3.417,4.983,3.454,5.222l0,0a.89.89,0,0,1-.74,1.021.888.888,0,0,1-.142.011A.892.892,0,0,1-8815.206,74.25Zm-22.811-13.725a9.505,9.505,0,0,1-1.737-5.34,20.959,20.959,0,0,1-5.512,2.137,6.42,6.42,0,0,1-2.939,0,20.99,20.99,0,0,1-5.476-2.11,9.5,9.5,0,0,1-3.468,7.181C-8853.738,63.879-8847.525,64.916-8838.017,60.525Zm-23.4-1.937a1.235,1.235,0,0,0-.441,1.636,3.6,3.6,0,0,0,2.169,1.5.233.233,0,0,0,.193-.058.23.23,0,0,0,.081-.183,5.8,5.8,0,0,0-.535-2.048,1.514,1.514,0,0,0-.7-.787,1.091,1.091,0,0,0-.459-.114h-.016A.757.757,0,0,0-8861.414,58.587Zm-2.42-27.22c.3,8.27,2.387,14.954,5.808,18.268a20.947,20.947,0,0,0,10.229,5.953,4.683,4.683,0,0,0,2.124,0h0a20.947,20.947,0,0,0,10.229-5.953c3.421-3.316,5.507-10,5.81-18.268a33.974,33.974,0,0,0-6.606-4.451c-.183,0-.366,0-.55.014a21.42,21.42,0,0,0-2.77.312c-.93.152-1.853.354-2.772.573h-.012a.891.891,0,0,1-1.078-.611.888.888,0,0,1,.575-1.1,18.94,18.94,0,0,1,2.844-.764,21.523,21.523,0,0,0-6.729-1.119,21.531,21.531,0,0,0-6.718,1.114,19.083,19.083,0,0,1,2.869.769h0a.89.89,0,0,1,.575,1.094.89.89,0,0,1-1.074.615l-.014,0c-.92-.216-1.845-.421-2.774-.573a21.428,21.428,0,0,0-2.768-.312q-.292-.018-.583-.013A33.877,33.877,0,0,0-8863.834,31.367Zm-3.974,1.975a3.981,3.981,0,0,0-.593,3.272,5.761,5.761,0,0,0,4.076,4.477,41.207,41.207,0,0,1-.892-4.76,1.788,1.788,0,0,0-1.471-.564.892.892,0,0,1-.972-.8.887.887,0,0,1,.8-.972,3.265,3.265,0,0,1,1.411.185c-.049-.566-.1-1.134-.13-1.718h-.066A3.094,3.094,0,0,0-8867.808,33.342Zm39.558,2.975a40.586,40.586,0,0,1-.9,4.771,5.759,5.759,0,0,0,4.073-4.475,3.961,3.961,0,0,0-.6-3.272,3.1,3.1,0,0,0-2.231-.883c-.028.588-.069,1.168-.118,1.738a3.142,3.142,0,0,1,1.4-.205.89.89,0,0,1,.8.972.892.892,0,0,1-.974.8c-.052,0-.1-.007-.154-.007A1.816,1.816,0,0,0-8828.25,36.317Zm.147-5.977a1.927,1.927,0,0,0,1.733.187c.1-.047.236-.12.236-.212.016-.5.056-1.192.1-2.03.308-5.215,1.021-17.425-2.583-20.808-2.919-2.739-10.677-5.7-18.125-5.7s-15.21,2.957-18.127,5.7c-3.6,3.383-2.889,15.593-2.586,20.806.05.838.092,1.533.107,2.032,0,.094.129.165.236.212a1.929,1.929,0,0,0,1.731-.187c3.352-2.951,10.231-7.9,18.636-7.9S-8831.455,27.392-8828.1,30.34Zm9.6,31.385a2.785,2.785,0,0,1-1.293-.321l-2.041-1.074a1,1,0,0,0-.925,0L-8824.8,61.4a2.779,2.779,0,0,1-2.922-.212,2.774,2.774,0,0,1-1.1-2.712l.393-2.273a1,1,0,0,0-.285-.878l-1.653-1.609a2.777,2.777,0,0,1-.7-2.844,2.777,2.777,0,0,1,2.237-1.888l2.284-.33a.994.994,0,0,0,.747-.542l1.021-2.068a2.771,2.771,0,0,1,2.487-1.544,2.768,2.768,0,0,1,2.484,1.544l1.023,2.068a.985.985,0,0,0,.744.544l2.284.33a2.774,2.774,0,0,1,2.237,1.888,2.771,2.771,0,0,1-.7,2.844l-1.651,1.609a.992.992,0,0,0-.285.878l.391,2.273a2.773,2.773,0,0,1-.613,2.255,2.777,2.777,0,0,1-2.119.989Zm-2.5-2.973,2.041,1.074a.986.986,0,0,0,1.043-.076.988.988,0,0,0,.395-.969l-.39-2.273a2.769,2.769,0,0,1,.8-2.454l1.651-1.611a1,1,0,0,0,.252-1.016.993.993,0,0,0-.8-.673l-2.285-.332a2.771,2.771,0,0,1-2.088-1.518l-1.021-2.068a.987.987,0,0,0-.887-.553.99.99,0,0,0-.89.553l-1.021,2.068a2.768,2.768,0,0,1-2.088,1.518l-2.282.332a.99.99,0,0,0-.8.673,1,1,0,0,0,.25,1.016l1.653,1.611a2.772,2.772,0,0,1,.8,2.454l-.39,2.273a.991.991,0,0,0,.393.967.991.991,0,0,0,1.04.078l2.044-1.074a2.774,2.774,0,0,1,1.293-.319A2.78,2.78,0,0,1-8821,58.752Zm-2.472-2.583a2.051,2.051,0,0,1-1.453-.6L-8825.5,55a.89.89,0,0,1,0-1.259.886.886,0,0,1,1.259,0l.568.566a.259.259,0,0,0,.361,0l3.605-3.26a.891.891,0,0,1,1.259.062.891.891,0,0,1-.062,1.259l-3.576,3.231a1.97,1.97,0,0,1-1.379.566Zm-28.231-10.118a6.881,6.881,0,0,1-.437-.985,2.236,2.236,0,0,1,.276-2.032,2.041,2.041,0,0,1,1.679-.885h6.942a2.037,2.037,0,0,1,1.678.885,2.23,2.23,0,0,1,.276,2.032,7.209,7.209,0,0,1-.435.985,5.778,5.778,0,0,1-4.992,2.556A5.77,5.77,0,0,1-8851.708,46.052Zm1.3-1.992a.448.448,0,0,0-.054.41,5.218,5.218,0,0,0,.318.727,4.034,4.034,0,0,0,3.426,1.629,4.036,4.036,0,0,0,3.428-1.629,5.379,5.379,0,0,0,.321-.729.453.453,0,0,0-.054-.408.271.271,0,0,0-.223-.129h-6.942A.264.264,0,0,0-8850.411,44.059Zm1.038-4.731a.83.83,0,0,1-.329-.8.831.831,0,0,1,.565-.66.83.83,0,0,1,.845.207,2.069,2.069,0,0,0,3.106,0,.83.83,0,0,1,.85-.214.832.832,0,0,1,.57.664.838.838,0,0,1-.341.807,4.041,4.041,0,0,1-2.63,1.094A4.039,4.039,0,0,1-8849.373,39.328Zm4.5-4.7-.035-.178c-.018-.091-.04-.209-.062-.348a5.289,5.289,0,0,0-3.483-.011c-.024.14-.047.263-.066.357l-.034.178c-.534,2.768-1.288,3.815-7.1,3.818-3.9,0-5.676-.368-6.594-2.645a5.756,5.756,0,0,1-.118-4.693,3.467,3.467,0,0,1,2.357-1.785c1.7-.41,7.04-.221,7.646-.2a4.006,4.006,0,0,1,3.247,1.261,3.524,3.524,0,0,1,.73,1.843,6.626,6.626,0,0,1,3.334.011,3.522,3.522,0,0,1,.733-1.856,4.033,4.033,0,0,1,3.285-1.261c.57-.022,5.912-.212,7.61.2a3.469,3.469,0,0,1,2.358,1.785,5.769,5.769,0,0,1-.118,4.7c-.921,2.278-2.7,2.645-6.595,2.645C-8843.59,38.439-8844.343,37.391-8844.878,34.623Zm1.935-3.113a3.18,3.18,0,0,0-.218,2.592l.035.181c.353,1.821.459,2.371,5.349,2.371,3.949,0,4.493-.419,4.94-1.529a4.155,4.155,0,0,0,.188-3.211,1.693,1.693,0,0,0-.212-.307.365.365,0,0,1-.325.057l-.153-.049c-.524-.16-1.206-.37-1.846-.526q-.671-.161-1.355-.259l-.146,0a1.688,1.688,0,0,1,.484,1.186,1.692,1.692,0,0,1-1.693,1.692,1.692,1.692,0,0,1-1.691-1.692,1.685,1.685,0,0,1,.408-1.1,2.6,2.6,0,0,0-1.309.831.6.6,0,0,1-.782.071.6.6,0,0,1-.169-.769l.009-.018c.022-.041.047-.081.071-.121A2.142,2.142,0,0,0-8842.943,31.51Zm-17.842.4a4.141,4.141,0,0,0,.188,3.211c.447,1.11.989,1.529,4.938,1.529,4.892,0,5-.55,5.351-2.371l.035-.183a3.175,3.175,0,0,0-.223-2.592,2.135,2.135,0,0,0-1.588-.606c.026.042.051.084.075.127l.011.018a.6.6,0,0,1-.169.767.6.6,0,0,1-.782-.071,2.6,2.6,0,0,0-1.31-.831,1.683,1.683,0,0,1,.406,1.1,1.692,1.692,0,0,1-1.691,1.692,1.692,1.692,0,0,1-1.693-1.692,1.691,1.691,0,0,1,.485-1.188l-.133,0c-.459.066-.917.152-1.369.261-.64.156-1.321.365-1.843.526l-.153.049a.364.364,0,0,1-.325-.058A1.676,1.676,0,0,0-8860.785,31.913Z" transform="translate(8880.253 0.25)" fill="#f81781" stroke="#f81781" stroke-width="0.5"/>
</svg>
