<svg xmlns="http://www.w3.org/2000/svg" width="68.978" height="75.5" viewBox="0 0 68.978 75.5">
  <path id="service-icon7" d="M22.548,75A4.975,4.975,0,0,1,17.6,70.594L14,39.395a9.016,9.016,0,0,1,8.954-10.047h3.129V26.087a1.63,1.63,0,0,1-1.63-1.63V5.1a5.1,5.1,0,0,1,5.1-5.1h9.375a5.1,5.1,0,0,1,5.1,5.1V24.457a1.631,1.631,0,0,1-1.63,1.63v3.261H45.52a9.016,9.016,0,0,1,8.954,10.047l-3.6,31.2A4.975,4.975,0,0,1,45.931,75Zm-5.3-35.979,3.6,31.2a1.715,1.715,0,0,0,1.7,1.519H45.931a1.715,1.715,0,0,0,1.7-1.519l3.6-31.2a5.753,5.753,0,0,0-5.715-6.412H35.87V46.739l4.565,6.087a1.63,1.63,0,1,1-2.609,1.956L35.87,52.174v3.261a1.63,1.63,0,0,1-3.261,0V52.174l-1.956,2.609a1.63,1.63,0,1,1-2.609-1.956l4.565-6.087V32.609H22.958A5.754,5.754,0,0,0,17.243,39.021Zm12.1-9.673H39.13V26.087H29.348Zm-1.63-6.522H40.761V16.3H27.717Zm0-9.783H40.761V9.783H27.717Zm0-7.948V6.522H40.761V5.1a1.836,1.836,0,0,0-1.834-1.834H29.552A1.836,1.836,0,0,0,27.717,5.1ZM0,52.174a4.891,4.891,0,1,1,4.891,4.891A4.9,4.9,0,0,1,0,52.174Zm3.261,0a1.63,1.63,0,1,0,1.63-1.631A1.632,1.632,0,0,0,3.261,52.174ZM58.7,14.674a4.891,4.891,0,1,1,4.891,4.891A4.9,4.9,0,0,1,58.7,14.674Zm3.261,0a1.63,1.63,0,1,0,1.63-1.63A1.632,1.632,0,0,0,61.957,14.674Z" transform="translate(0.25 0.25)" fill="#6a1a9a" stroke="#ffe3ef" stroke-width="0.5"/>
</svg>
