<svg xmlns="http://www.w3.org/2000/svg" width="75.003" height="75" viewBox="0 0 75.003 75">
  <path id="service-icon9" d="M28.266,72.484a1.465,1.465,0,0,1,0-2.072L42.744,55.935H22.264A1.465,1.465,0,0,1,20.8,54.47a8.6,8.6,0,0,1,8.589-8.589h5.77a1.465,1.465,0,1,1,0,2.93h-5.77A5.67,5.67,0,0,0,23.921,53H57.952a8.559,8.559,0,0,1,2.009-4.195h-13.6a1.465,1.465,0,1,1,0-2.93h7.689a8.589,8.589,0,1,1,12.916.02,8.588,8.588,0,1,1-9.018,10.034h-.989l-16.55,16.55a8.589,8.589,0,0,1-12.147,0Zm3.242-1.171a5.666,5.666,0,0,0,6.833-.9L52.819,55.934H46.887ZM60.754,54.47a5.66,5.66,0,1,0,5.66-5.66A5.666,5.666,0,0,0,60.754,54.47ZM56.518,36.228A5.659,5.659,0,0,0,60.2,45.88h.635a5.658,5.658,0,1,0-4.319-9.652ZM2.819,55.681a9.624,9.624,0,0,1,0-13.61L17.9,26.985a1.465,1.465,0,0,1,2.071,2.072L4.89,44.143a6.694,6.694,0,0,0,9.467,9.466,26.932,26.932,0,0,0,7.559-14.673l.544-3.245a6.557,6.557,0,0,1,11.1-3.553l3.956,3.956a1.465,1.465,0,0,1-2.072,2.072l-3.956-3.956a3.627,3.627,0,0,0-6.142,1.965l-.544,3.245a29.845,29.845,0,0,1-8.377,16.261,9.635,9.635,0,0,1-13.61,0ZM6.19,52.309a4.861,4.861,0,1,1,3.433,1.42A4.861,4.861,0,0,1,6.19,52.309Zm2.072-4.8a1.928,1.928,0,1,0,1.362-.563A1.928,1.928,0,0,0,8.262,47.514Zm45.361,4.652a1.464,1.464,0,1,1,1.036.429A1.479,1.479,0,0,1,53.623,52.166ZM39.91,48.381a1.464,1.464,0,1,1,1.036.429A1.476,1.476,0,0,1,39.91,48.381Zm-.183-14.494-8.192-8.192a1.465,1.465,0,0,1,2.071-2.072L41.8,31.815a1.465,1.465,0,1,1-2.072,2.072Zm4.279-4.279-8.192-8.192a1.465,1.465,0,1,1,2.072-2.072l8.192,8.192a1.465,1.465,0,1,1-2.071,2.072Zm4.279-4.279-8.192-8.192a1.465,1.465,0,0,1,2.071-2.072l8.192,8.192a1.465,1.465,0,1,1-2.071,2.072ZM22.641,24.319a1.464,1.464,0,1,1,1.036.429A1.473,1.473,0,0,1,22.641,24.319Zm29.923-3.27-8.192-8.192a1.465,1.465,0,0,1,2.072-2.072l8.192,8.192a1.465,1.465,0,1,1-2.072,2.072Zm-25.87-.781a1.465,1.465,0,0,1,0-2.072L42.1,2.788a9.518,9.518,0,0,1,13.46,0l7.632,7.631a1.465,1.465,0,1,1-2.072,2.072L53.491,4.86a6.588,6.588,0,0,0-9.317,0L28.765,20.267a1.465,1.465,0,0,1-2.072,0Zm30.149-3.5L48.651,8.578a1.465,1.465,0,0,1,2.071-2.072L58.915,14.7a1.465,1.465,0,1,1-2.071,2.072Z" fill="#6a1a9a"/>
</svg>
