<svg xmlns="http://www.w3.org/2000/svg" width="16" height="16" viewBox="0 0 16 16">
  <path id="time" d="M0,8A8,8,0,0,1,16,8a7.875,7.875,0,0,1-3.555,6.645A8.194,8.194,0,0,1,8,16,8.018,8.018,0,0,1,0,8ZM.938,8A7.062,7.062,0,1,0,8,.938,7.07,7.07,0,0,0,.938,8Zm6.593,5.625v-.938a.469.469,0,1,1,.938,0v.938a.469.469,0,1,1-.938,0Zm4.115-1.316a.47.47,0,1,1,.331.137A.47.47,0,0,1,11.646,12.309Zm-8.092-.332a.468.468,0,1,1,.468.469A.469.469,0,0,1,3.554,11.977Zm6.927-.833L7.669,8.331A.468.468,0,0,1,7.531,8V5.188a.469.469,0,1,1,.938,0V7.806l2.675,2.676a.468.468,0,1,1-.662.662Zm2.206-2.675a.469.469,0,1,1,0-.938h.938a.469.469,0,1,1,0,.938Zm-10.312,0a.469.469,0,1,1,0-.938h.938a.469.469,0,0,1,0,.938ZM3.691,4.354a.47.47,0,1,1,.332.137A.47.47,0,0,1,3.691,4.354Zm7.817-.332a.469.469,0,1,1,.469.469A.469.469,0,0,1,11.508,4.022ZM7.531,3.313V2.375a.469.469,0,1,1,.938,0v.938a.469.469,0,0,1-.938,0Z" fill="#050505"/>
</svg>
