<svg xmlns="http://www.w3.org/2000/svg" width="17.58" height="15" viewBox="0 0 17.58 15">
  <path id="vid" d="M22145.6,15a.258.258,0,1,1,0-.516h1.2a.671.671,0,0,0,.67-.67v-6.6a.671.671,0,0,0-.67-.67h-8.949a.671.671,0,0,0-.67.67v6.6a.671.671,0,0,0,.67.67h6.719a.258.258,0,0,1,0,.516h-6.719a1.187,1.187,0,0,1-1.186-1.186V9.745h-1.051l-1.242.589a.26.26,0,0,1-.369-.233V6.9a.26.26,0,0,1,.369-.233l1.242.589h1.051V7.212a1.187,1.187,0,0,1,1.184-1.186,2.368,2.368,0,1,1,3.3-3.359,3.271,3.271,0,0,1,5.316-1.9.257.257,0,1,1-.33.4,2.749,2.749,0,1,0,.609.722.258.258,0,1,1,.445-.261,3.272,3.272,0,0,1-1.064,4.4h.672a1.188,1.188,0,0,1,1.186,1.186v.617l3.217-1.771a.256.256,0,0,1,.381.226v7.027a.259.259,0,0,1-.381.226l-3.217-1.771v2.048A1.188,1.188,0,0,1,22146.8,15Zm2.383-6.582v2.759l3.082,1.7V6.721Zm-13.467,1.275.779-.369V7.675l-.779-.369Zm1.295-.464h.852V7.77h-.852Zm4.982-3.2h1.809a3.283,3.283,0,0,1-1.043-1.076A2.391,2.391,0,0,1,22140.793,6.026Zm-3.326-1.854a1.854,1.854,0,1,0,1.854-1.854A1.855,1.855,0,0,0,22137.467,4.172Zm6.244,9.029a.258.258,0,1,1,0-.516h.643a.258.258,0,0,1,0,.516Zm-1.711,0a.258.258,0,0,1,0-.516h.645a.258.258,0,0,1,0,.516Zm-1.709,0a.258.258,0,1,1,0-.516h.643a.258.258,0,0,1,0,.516Zm-.387-1.413a.6.6,0,0,1-.6-.6V8.371a.6.6,0,0,1,.6-.6h1.012a.258.258,0,0,1,0,.516h-1.012a.086.086,0,0,0-.086.086v2.815a.086.086,0,0,0,.086.086h4.834a.086.086,0,0,0,.086-.086V8.371a.086.086,0,0,0-.086-.086h-2.791a.258.258,0,0,1,0-.516h2.791a.6.6,0,0,1,.6.6v2.815a.6.6,0,0,1-.6.6Zm-1.514-7.616a.93.93,0,1,1,.93.93A.93.93,0,0,1,22138.391,4.172Zm.516,0a.414.414,0,1,0,.414-.414A.414.414,0,0,0,22138.906,4.172Zm4.143-.9a1.315,1.315,0,1,1,1.314,1.316A1.317,1.317,0,0,1,22143.049,3.271Zm.516,0a.8.8,0,1,0,.8-.8A.8.8,0,0,0,22143.564,3.271Z" transform="translate(-22134)"/>
</svg>
