<svg xmlns="http://www.w3.org/2000/svg" width="36.145" height="36.156" viewBox="0 0 36.145 36.156">
  <path id="wwd1" d="M.565,36.156a.565.565,0,1,1,0-1.13h4.6a4.106,4.106,0,0,1,1.144-6.74c.053-.024-.373.1,6.325-1.855,0-.735-.007-1.374-.018-1.933H8.551a2.731,2.731,0,0,1-2.13-4.432c4.935-6.172,4.64-5.819,4.732-5.888a7.841,7.841,0,0,1,4.3-1.512,6.382,6.382,0,0,1-1.065-2,9.009,9.009,0,0,1-.771-3.643A4.01,4.01,0,0,1,15.56,3.634V2.513A2.516,2.516,0,0,1,19.849.734c.865.868.736,1.736.736,2.9a4.009,4.009,0,0,1,1.947,3.393,9.048,9.048,0,0,1-.771,3.642,6.465,6.465,0,0,1-1.064,2,7.877,7.877,0,0,1,4.263,1.476,6.694,6.694,0,0,1,.8.974.565.565,0,0,1-.882.705l-.644-.806C22.082,13.5,20.4,13.788,15.81,13.788a6.717,6.717,0,0,0-3.928,1.258L7.3,20.773a1.6,1.6,0,0,0,1.248,2.6c9.355,0,8.665.052,8.84-.121s.117.139.117-5.471c-.847.435-1.128,2.29-1.13,3.237a.565.565,0,0,1-.565.564H10.838a.565.565,0,0,1-.444-.914l2.716-3.46a.565.565,0,0,1,.889.7l-.84,1.07a14.154,14.154,0,0,1,.319,1.477h1.8c.149-1.926.9-4,2.8-3.9,1.9-.106,2.651,1.973,2.8,3.9h1.8a14.15,14.15,0,0,1,.319-1.477l-.84-1.07a.565.565,0,0,1,.889-.7l2.716,3.46a.565.565,0,0,1-.444.914H20.332a.565.565,0,0,1-.565-.565c0-.94-.28-2.8-1.13-3.236,0,5.617-.052,5.3.121,5.474s-.477.118,8.837.118a1.6,1.6,0,0,0,1.249-2.6l-1.074-1.343a.565.565,0,0,1,.882-.706l1.074,1.343a2.732,2.732,0,0,1-2.13,4.432h-4.07c-.01.558-.016,1.2-.018,1.933,6.687,1.955,6.271,1.831,6.325,1.855a4.107,4.107,0,0,1,1.147,6.74h4.6a.565.565,0,1,1,0,1.13Zm26.819-4.608a.565.565,0,0,1-.411.685l-.546.136v2.646h1.736a2.977,2.977,0,0,0,1.242-5.681c-7.186-2.1-6.768-1.92-6.932-2.162a.565.565,0,0,1-.1-.314c0-.776,0-1.583.018-2.359H19.046a1.531,1.531,0,0,1-.974-.347,1.531,1.531,0,0,1-.973.347H13.75c.01.524.015,1.116.017,1.791H19.42a.565.565,0,0,1,0,1.13H13.284L6.739,29.334a2.977,2.977,0,0,0,1.242,5.681H9.718V32.37l-.546-.136a.565.565,0,0,1,.274-1.1l5.6,1.4.773-.515a2.464,2.464,0,0,1,3.576.941l7.3-1.826a.564.564,0,0,1,.685.411ZM15.462,33.617c-.019.013-.046.028-.058.034-2.228,1.114-2.239,1.071-2.437,1.365H25.3V32.652l-6.114,1.529a.565.565,0,0,1-.673-.37l-.061-.184a1.3,1.3,0,0,0-1.234-.89C16.671,32.737,16.522,32.911,15.462,33.617Zm-4.615,1.4h.893c.287-1.062,1.1-1.347,1.792-1.692l-2.686-.671ZM23.812,20.449h.334l-.269-.343C23.854,20.218,23.832,20.332,23.812,20.449ZM12,20.449h.334c-.02-.117-.042-.231-.065-.343Zm3.919-9.1a2.432,2.432,0,0,0,4.307,0,9.79,9.79,0,0,0,1.175-4.2,2.927,2.927,0,0,0-2.93.543,3.6,3.6,0,0,1-3.621.623A11.447,11.447,0,0,0,15.919,11.351ZM15.7,4.941a2.805,2.805,0,0,0-.955,2.106,2.584,2.584,0,0,0,3.116-.3,4.067,4.067,0,0,1,3.307-.826,3.349,3.349,0,0,0-3.1-1.871A3.5,3.5,0,0,0,15.7,4.941Zm3.758-1.818c0-.626.069-1.113-.405-1.589a1.386,1.386,0,0,0-2.361.979h0v.61a4.849,4.849,0,0,1,2.766,0ZM26.382,17.7l-.089-.111a.565.565,0,1,1,.881-.707l.089.111a.565.565,0,0,1-.881.707Z" fill="#f79457"/>
</svg>
