<svg xmlns="http://www.w3.org/2000/svg" width="39.578" height="36.027" viewBox="0 0 39.578 36.027">
  <path id="wwd2" d="M.619,36.027a.618.618,0,0,1,0-1.237H3.407a16.591,16.591,0,0,1-1.139-2.767,2.026,2.026,0,0,1,.769-2.432l4.47-2.983c7.985-6.713,6.267-5.886,8.112-7.148-.01-4.1-.209-4.43-.689-6.153H2.075A2.039,2.039,0,1,1,2.039,9.23a.618.618,0,1,1,0,1.237.8.8,0,1,0,.036,1.6H15.529a.618.618,0,0,1,.576.841c.568,2.051.765,2.62.752,6.878a.627.627,0,0,1-.047.236c-.582,1.4.488,3.483,1.843,4.184a7.42,7.42,0,0,0,2.538.641,53.1,53.1,0,0,1,6.534.265.618.618,0,0,1,.559.686l-.3,2.6h1.785l.721-3.5a1.827,1.827,0,0,0-1.185-2.088c-3.915-1.353-1.052-.475-6.074-1.707l-3.507-.351a.618.618,0,0,1,.123-1.231c3.1.31,2.87.3,2.87.26,0-4.224.194-4.906.618-6.4.214-.755.091-.348.091-.7a.618.618,0,0,1,.618-.618H37.5a.8.8,0,1,0,.036-1.6.618.618,0,1,1,0-1.237,2.039,2.039,0,1,1-.036,4.077H24.647c-.488,1.754-.689,2.053-.689,6.482a.615.615,0,0,1-.039.215,28.115,28.115,0,0,1,4.247,1.1c1.655.586,1.538.532,1.538.54a3.068,3.068,0,0,1,2,3.51L30.14,32.744l1.2.3a2.433,2.433,0,0,1,1.766,1.746h5.851a.618.618,0,0,1,0,1.237ZM3.724,30.62a.8.8,0,0,0-.3.957l.871,2.248a1.512,1.512,0,0,0,1.469.965L5.242,31.8a.618.618,0,0,1,.277-.628L8.145,29.5l-.564-1.457Zm23.5,3.175a.8.8,0,0,0,.778,1H31.78a1.2,1.2,0,0,0-.738-.546L29.264,33.8a.618.618,0,0,1-.456-.725l.709-3.438H27.846C27.429,33.291,27.588,32.321,27.22,33.795ZM16.571,26.9C9.68,29.8,9.056,30.39,6.531,32l.486,2.793H26.124a2.025,2.025,0,0,1-.1-1.3c.356-1.424.145-.036.963-7.2a47.5,47.5,0,0,0-4.95-.209,7.632,7.632,0,0,1-2.782-.335C18.453,26.114,17.575,26.483,16.571,26.9Zm-7.956.389.617,1.593c3.364-1.726,6.248-2.845,8.471-3.8a5.5,5.5,0,0,1-2.288-3.888A87.247,87.247,0,0,1,8.615,27.293ZM2.312,8.866a.618.618,0,1,1,.875-.874C4.569,9.375,4.6,9.23,6.816,9.23a.618.618,0,1,1,0,1.237l-.806,0C4.314,10.469,3.819,10.375,2.312,8.866Zm9.425,1.6a.618.618,0,1,1,0-1.237h5.716a2.5,2.5,0,0,1-.177-.332,7.9,7.9,0,0,1-.945-3.568,3.119,3.119,0,0,1,1.42-2.587v-.7a2.038,2.038,0,1,1,4.077,0v.7C23.239,3.7,23.446,5.1,23.1,6.727a10.548,10.548,0,0,1-.976,2.5H34.111c1.042,0,1.43-.388,2.281-1.239a.618.618,0,0,1,.875.874,3.96,3.96,0,0,1-3.156,1.6ZM18.8,3.572a.616.616,0,0,1-.3.161,1.9,1.9,0,0,0-.93,1.6,6.763,6.763,0,0,0,.84,3.07,1.567,1.567,0,0,0,2.762,0,6.844,6.844,0,0,0,.841-3.07,1.9,1.9,0,0,0-.93-1.6.615.615,0,0,1-.3-.161,2.489,2.489,0,0,0-1.979,0Zm1.791-1.356a.908.908,0,0,0-.235-.746.8.8,0,0,0-1.368.568v.178a3.757,3.757,0,0,1,1.6,0ZM8.645,9.849a.618.618,0,1,1,.618.618A.618.618,0,0,1,8.645,9.849Z" fill="#f79457"/>
</svg>
