<svg xmlns="http://www.w3.org/2000/svg" width="36" height="36" viewBox="0 0 36 36">
  <path id="wwd3" d="M.563,36a.563.563,0,0,1,0-1.125H16.922c-.382-.79-.12-1.4.124-2.38l.711-6.233a50.616,50.616,0,0,0-5.838-.21,8.54,8.54,0,0,1-3.1-.773C6.866,24.269,6.3,21.43,7.1,19.67c.177-2.41,5.454-5,7-10.9a4.9,4.9,0,0,1-1.311-3,1.99,1.99,0,0,1-2.033-2.629l.384-1.092A2.036,2.036,0,0,1,14.8,1.715a3.8,3.8,0,0,1,5.014,1.467,5.5,5.5,0,0,1,.478,3.128L22.8,3.8A4.553,4.553,0,0,0,24.143.563a.563.563,0,1,1,1.125,0A5.67,5.67,0,0,1,23.6,4.6L16.25,11.945a.562.562,0,0,1-.8-.8L16.4,10.2a5.155,5.155,0,0,1-1.362-.635C13.3,15.282,8.457,17.89,8.21,19.876a.553.553,0,0,1-.049.168c-.631,1.346-.205,3.523,1.171,4.236a7.458,7.458,0,0,0,2.579.647,53.38,53.38,0,0,1,6.52.265.563.563,0,0,1,.508.624l-.3,2.664h1.9l.73-3.543a1.886,1.886,0,0,0-1.212-2.151,20.264,20.264,0,0,0-3.242-.946c-.579-.1-1.452-.25-3.573-.77l-2.619-.327a.563.563,0,0,1,.139-1.116l2.458.307a36.935,36.935,0,0,0,3.99-2.658c1.305-1.307,1.966-2.368,1.966-3.155a1.966,1.966,0,0,0-.149-.683c-.644.644-.73.8-1.037.8a.563.563,0,0,1-.4-.96L20.267,10.6a.562.562,0,1,1,.8.8l-1.19,1.19a3.452,3.452,0,0,1,.422,1.535c0,1.651-1.726,3.38-2.293,3.948a26.6,26.6,0,0,1-3.208,2.215c3.3.756,2.067.2,5.606,1.432a3.014,3.014,0,0,1,1.965,3.448l-1.577,7.648,1.256.314a2.378,2.378,0,0,1,1.737,1.749H35.437a.562.562,0,1,1,0,1.125Zm17.315-2.191a.859.859,0,0,0,.833,1.066h3.88a1.255,1.255,0,0,0-.82-.657l-1.779-.445a.562.562,0,0,1-.414-.659l.723-3.508H18.508C18.084,33.318,18.245,32.336,17.877,33.809ZM15.536,6.476a.563.563,0,0,1,.312.732l-.485,1.2a4.047,4.047,0,0,0,1.984.846l1.822-1.822a26.5,26.5,0,0,0-.026-2.816A4.087,4.087,0,0,1,16.26,5.8a.563.563,0,1,1,0-1.125A2.939,2.939,0,0,0,18.654,3.46a2.694,2.694,0,0,0-3.6-.6,2,2,0,0,1-.05.295c-.049.2-.451,1.319-.5,1.428a2.019,2.019,0,0,1-.607.765,3.762,3.762,0,0,0,.621,2.139l.284-.7a.562.562,0,0,1,.732-.312ZM12.2,2.419l-.384,1.092a.85.85,0,0,0,.55,1.086.9.9,0,0,0,1.142-.536c.439-1.245.444-1.2.429-1.442a.9.9,0,0,0-1.737-.2Zm9.65,7.394a.562.562,0,0,1,0-.8l.1-.1a.562.562,0,1,1,.8.8l-.1.1a.562.562,0,0,1-.8,0ZM23.538,7.33,28.13,2.738A.945.945,0,1,0,26.794,1.4a.563.563,0,0,1-.8,0c-.815-.815,1.518-2.2,2.927-.8a2.07,2.07,0,0,1,0,2.927L24.333,8.126a.563.563,0,0,1-.8-.8Z" fill="#f79457"/>
</svg>
