<svg xmlns="http://www.w3.org/2000/svg" width="38.231" height="35.928" viewBox="0 0 38.231 35.928">
  <path id="wwd4" d="M24.314,35.922a.558.558,0,0,1-.111,0c-3.691,0-6.656,0-9.041,0-10.525.006-9.778.012-10.416-.11H.6a.6.6,0,1,1,0-1.195h1.58A5.826,5.826,0,0,1,0,30.071c0-.073,0-1.9,0-2.022,0-1.668,2.389-4.829,3.439-6.132a.6.6,0,1,1,.93.75C3.448,23.81,1.38,26.527,1.2,27.98c-.014.115-.01.041-.007,2.09a4.657,4.657,0,0,0,3.672,4.55H23.662V30.755L9.055,28.763c-.168.07.126.052-4.285-.013a.6.6,0,1,1,.018-1.195c4.786.071,3.445.072,3.936-.015a45.28,45.28,0,0,1,6.028-3.986c1.132-.52,3.14-1.746,3.647-3.058H15A.6.6,0,1,1,15,19.3H35.523a1.461,1.461,0,1,0,.053-2.92.6.6,0,0,1,0-1.195,2.655,2.655,0,1,1-.053,5.31H19.645c-.411,1.818-2.734,3.381-4.4,4.144a36.314,36.314,0,0,0-4.8,3.106L31.3,30.59c4.244-3.183,4-3.059,4.277-3.059A2.388,2.388,0,0,1,37.65,31.1l-1.99,3.483c-.026.047-.248.032,1.974.032a.6.6,0,1,1,0,1.195H34.107c-.322.1-.171.113-2.632.113C30.094,35.928,27.888,35.922,24.314,35.922Zm.543-1.3h9.054A1.463,1.463,0,0,0,34.622,34l1.99-3.483a1.194,1.194,0,0,0-.855-1.773l-3.938,2.953a.6.6,0,0,1-.439.114l-6.523-.89h0ZM5,20.082l.113-.126a.6.6,0,1,1,.891.8.709.709,0,0,1-.562.329A.6.6,0,0,1,5,20.082Zm1.734-1.854A37.617,37.617,0,0,1,15.5,11.265,6.939,6.939,0,0,1,17.267,5.54,2.67,2.67,0,0,1,17.658.989L19.169.264a2.729,2.729,0,0,1,3.721,3.36,5.289,5.289,0,0,1,3.7,6.425,4.986,4.986,0,0,1-1.29,2.236l-2.9,2.9h8.212c1.634,0,2.263-.629,3.517-1.883a.6.6,0,0,1,.845.845c-1.3,1.3-2.232,2.233-4.361,2.233H15a.6.6,0,1,1,0-1.195h2.362a7.285,7.285,0,0,1-1.584-2.718,37.472,37.472,0,0,0-8.193,6.594.6.6,0,1,1-.854-.835ZM18.84,9.191a.6.6,0,0,1-.316.784l-1.876.8a6.082,6.082,0,0,0,1.777,3.8,2.012,2.012,0,0,0,2.844.052c3.482-3.482,3.448-3.388,3.778-3.957A5.684,5.684,0,0,1,20.626,9a.6.6,0,0,1,.845-.845A4.461,4.461,0,0,0,25.511,9.4a4.115,4.115,0,0,0-3.326-4.713,2.837,2.837,0,0,1-.445.324c-.118.068-1.67.822-1.914.913a2.641,2.641,0,0,1-1.149.157c-.308-.026-.19-.077-.382.114A5.677,5.677,0,0,0,16.68,9.461l1.377-.586a.6.6,0,0,1,.784.316Zm.845-7.849-1.512.724a1.407,1.407,0,0,0-.729.818A1.532,1.532,0,0,0,19.53,4.753c1.6-.764,1.683-.762,1.955-1.056a1.467,1.467,0,0,0,.2-1.634A1.549,1.549,0,0,0,20.311,1.2,1.446,1.446,0,0,0,19.685,1.342Z" fill="#f79457"/>
</svg>
