<svg xmlns="http://www.w3.org/2000/svg" width="201.865" height="40.003" viewBox="0 0 201.865 40.003">
  <g id="Group_7936" data-name="Group 7936" transform="translate(12804 2564)">
    <g id="Group_5" data-name="Group 5" transform="translate(-14100.868 -3695.437)">
      <path id="Path_34" data-name="Path 34" d="M1387.339,1138.837a11.163,11.163,0,0,0-2.59.167,5.33,5.33,0,0,0-2.357,1.07,8.517,8.517,0,0,1,2.76,2.039,4.737,4.737,0,0,1,1.086,3.243,4.087,4.087,0,0,1-.788,2.541,6.417,6.417,0,0,1-1.956,1.7,9.759,9.759,0,0,1-2.523,1,13.87,13.87,0,0,1-2.49.4v.067a8.037,8.037,0,0,1,4.663,1.27,4.1,4.1,0,0,1,1.621,3.51,5.346,5.346,0,0,1-.936,3.058,8.845,8.845,0,0,1-2.423,2.39,12.9,12.9,0,0,1-7,2.139,6.9,6.9,0,0,1-1.471-.167,4.386,4.386,0,0,1-1.387-.552,3.307,3.307,0,0,1-1.02-.986,2.593,2.593,0,0,1-.4-1.471,2.356,2.356,0,0,1,2.2-2.507,2.226,2.226,0,0,1,.31,0,2.74,2.74,0,0,1,1.3.3,2.788,2.788,0,0,1,.867.669,7.01,7.01,0,0,0-1.086,1.236,2.674,2.674,0,0,0-.518,1.571,1.255,1.255,0,0,0,.418,1.02,1.689,1.689,0,0,0,1.12.351,3.508,3.508,0,0,0,2.022-.685,7.314,7.314,0,0,0,1.755-1.755,9.45,9.45,0,0,0,1.236-2.406,7.958,7.958,0,0,0,.468-2.641,4.7,4.7,0,0,0-.418-2.106,3.3,3.3,0,0,0-1.12-1.3,3.857,3.857,0,0,0-1.571-.6,5.274,5.274,0,0,0-1.772.033l.133-.3a9.023,9.023,0,0,0,4.947-2.223,5.931,5.931,0,0,0,1.8-4.495,5.036,5.036,0,0,0-.284-1.721,3.983,3.983,0,0,0-.953-1.454,22.386,22.386,0,0,0-3.443,4.429q-1.437,2.424-2.76,4.864t-2.674,4.713a19.193,19.193,0,0,1-3.175,4.028,14.265,14.265,0,0,1-4.312,2.825,15.349,15.349,0,0,1-6.067,1.069,10.153,10.153,0,0,1-2.123-.217,6.09,6.09,0,0,1-1.821-.685,3.608,3.608,0,0,1-1.271-1.22,3.446,3.446,0,0,1-.468-1.854,2.7,2.7,0,0,1,.618-1.735,2.122,2.122,0,0,1,1.755-.769,2.282,2.282,0,0,1,1.571.535,1.868,1.868,0,0,1,.6,1.471,1.825,1.825,0,0,1-1.371,1.8,2.4,2.4,0,0,0,.819,1.755,2.823,2.823,0,0,0,1.755.518,6.093,6.093,0,0,0,3.059-.769,9.863,9.863,0,0,0,2.507-2.073,21.059,21.059,0,0,0,2.189-3.008q1.035-1.706,2.072-3.593t2.139-3.828a34.583,34.583,0,0,1,2.423-3.694,23.4,23.4,0,0,1,2.908-3.209,14.129,14.129,0,0,1,3.593-2.39,11.462,11.462,0,0,0-2.139-.7,14.851,14.851,0,0,0-3.443-.334,16.852,16.852,0,0,0-5.582.919,14.7,14.7,0,0,0-4.6,2.541,12.465,12.465,0,0,0-3.109,3.811,9.991,9.991,0,0,0-1.154,4.731,5.487,5.487,0,0,0,.218,1.571,3.949,3.949,0,0,0,.636,1.287,2.9,2.9,0,0,0,1.086.868,3.632,3.632,0,0,0,1.571.315,3.382,3.382,0,0,0,2.139-.7,5.91,5.91,0,0,0,1.5-1.755,8.729,8.729,0,0,0,.9-2.307,10.138,10.138,0,0,0,.3-2.357,7.19,7.19,0,0,0-.334-2.072,11.836,11.836,0,0,0-.8-2.005l.334-.134q.467.97.836,1.922a6.934,6.934,0,0,1,.368,2.457,9.943,9.943,0,0,1-.485,3.092,7.807,7.807,0,0,1-1.437,2.624,6.989,6.989,0,0,1-5.566,2.507,5.234,5.234,0,0,1-2.123-.418,4.715,4.715,0,0,1-1.621-1.154,5.284,5.284,0,0,1-1.036-1.7,5.887,5.887,0,0,1-.368-2.105,7.971,7.971,0,0,1,.8-3.526,11.084,11.084,0,0,1,2.172-3.025,15.747,15.747,0,0,1,3.192-2.44,24.065,24.065,0,0,1,3.864-1.822,24.575,24.575,0,0,1,4.195-1.136,23.838,23.838,0,0,1,4.162-.385,34.462,34.462,0,0,1,3.943.218,19.9,19.9,0,0,1,3.042.552,14.07,14.07,0,0,1,2.839-.8,18.867,18.867,0,0,1,3.51-.3Z" transform="translate(0 0)" fill="#050505"/>
      <path id="Path_35" data-name="Path 35" d="M1413.606,1157.537q-.77,1.1-1.721,2.223t-2.156,2.287a20.141,20.141,0,0,1-4.479,3.343,10.311,10.311,0,0,1-4.848,1.136,5.128,5.128,0,0,1-3.51-1.07,3.947,3.947,0,0,1-1.2-3.109,6.112,6.112,0,0,1,1-3.343,10.692,10.692,0,0,1,2.523-2.741,13.458,13.458,0,0,1,3.312-1.872,9.275,9.275,0,0,1,3.391-.7,5.894,5.894,0,0,1,2.641.517,1.757,1.757,0,0,1,1.036,1.688,2.525,2.525,0,0,1-1.136,2.04,11.266,11.266,0,0,1-2.691,1.488,23.748,23.748,0,0,1-3.126,1q-1.572.384-2.473.584a6.839,6.839,0,0,0-.134,1.337,5.284,5.284,0,0,0,.134,1.183,2.709,2.709,0,0,0,.451,1.02,2.32,2.32,0,0,0,.836.7,2.77,2.77,0,0,0,1.287.267,6.347,6.347,0,0,0,3.376-1.154,24.708,24.708,0,0,0,3.644-2.892,27.721,27.721,0,0,0,2.056-2.208q.886-1.069,1.487-1.939Zm-7.354-2.507a.827.827,0,0,0-.7-.936.777.777,0,0,0-.234,0,2.492,2.492,0,0,0-1.588.752,9.61,9.61,0,0,0-1.571,1.8,16.858,16.858,0,0,0-1.254,2.157,7.508,7.508,0,0,0-.669,1.838,9.2,9.2,0,0,0,2.523-.92,8.787,8.787,0,0,0,1.906-1.387,5.583,5.583,0,0,0,1.183-1.639,3.973,3.973,0,0,0,.405-1.671Z" transform="translate(-9.178 -3.225)" fill="#050505"/>
      <path id="Path_36" data-name="Path 36" d="M1432.211,1154.1q-.368.535-.953,1.37t-1.254,1.805q-.668.97-1.34,2.022t-1.22,2.056a17.576,17.576,0,0,0-.9,1.872,4.086,4.086,0,0,0-.351,1.471q0,.969.769.969a3.044,3.044,0,0,0,1.656-.668,16.781,16.781,0,0,0,2.089-1.789,34.243,34.243,0,0,0,2.374-2.625q1.236-1.5,2.507-3.175l.2.133q-1.34,1.7-2.607,3.326a31.792,31.792,0,0,1-2.524,2.875,13.749,13.749,0,0,1-2.507,2.023,4.842,4.842,0,0,1-2.557.768,3.363,3.363,0,0,1-1.735-.367,2.329,2.329,0,0,1-.886-.92,3.05,3.05,0,0,1-.334-1.154q-.05-.6-.051-1.069l-.1-.067q-.534.635-1.153,1.27a9.657,9.657,0,0,1-1.354,1.153,7.39,7.39,0,0,1-1.538.836,4.6,4.6,0,0,1-1.7.316,3.022,3.022,0,0,1-2.423-.953,4.648,4.648,0,0,1-.819-3.059,7.056,7.056,0,0,1,.736-3.025,9.534,9.534,0,0,1,2.089-2.839,11.352,11.352,0,0,1,3.226-2.123,9.983,9.983,0,0,1,4.111-.836,2.778,2.778,0,0,1,1.989.653,3.028,3.028,0,0,1,.886,1.621h.067l.867-1.735Zm-13.27,10.961a3.216,3.216,0,0,0,1.8-.9,13.663,13.663,0,0,0,2.172-2.307,16.5,16.5,0,0,0,1.839-3.059,7.5,7.5,0,0,0,.769-3.159,1.435,1.435,0,0,0-.451-1.153,1.537,1.537,0,0,0-1.02-.385,2.6,2.6,0,0,0-1.419.468,6.89,6.89,0,0,0-1.4,1.254,14.048,14.048,0,0,0-1.3,1.772,17.562,17.562,0,0,0-1.087,2.005,12.663,12.663,0,0,0-.735,2.022,6.99,6.99,0,0,0-.267,1.772,3.019,3.019,0,0,0,.217,1.12.858.858,0,0,0,.884.552Z" transform="translate(-12.999 -3.225)" fill="#050505"/>
      <path id="Path_36-2" data-name="Path 36" d="M1494.209,1154.1q-.369.535-.953,1.37t-1.253,1.805q-.67.97-1.34,2.022t-1.22,2.056a17.32,17.32,0,0,0-.9,1.872,4.051,4.051,0,0,0-.351,1.471q0,.969.769.969a3.045,3.045,0,0,0,1.656-.668,16.916,16.916,0,0,0,2.089-1.789,34.265,34.265,0,0,0,2.373-2.625q1.236-1.5,2.507-3.175l.2.133q-1.342,1.7-2.607,3.326a32,32,0,0,1-2.523,2.875,13.8,13.8,0,0,1-2.507,2.023,4.844,4.844,0,0,1-2.557.768,3.362,3.362,0,0,1-1.735-.367,2.332,2.332,0,0,1-.886-.92,3.05,3.05,0,0,1-.334-1.154q-.051-.6-.051-1.069l-.1-.067q-.534.635-1.153,1.27a9.685,9.685,0,0,1-1.354,1.153,7.41,7.41,0,0,1-1.538.836,4.605,4.605,0,0,1-1.7.316,3.021,3.021,0,0,1-2.423-.953,4.644,4.644,0,0,1-.819-3.059,7.046,7.046,0,0,1,.736-3.025,9.53,9.53,0,0,1,2.089-2.839,11.338,11.338,0,0,1,3.226-2.123,9.98,9.98,0,0,1,4.111-.836,2.781,2.781,0,0,1,1.989.653,3.026,3.026,0,0,1,.885,1.621h.067l.867-1.735Zm-13.271,10.961a3.214,3.214,0,0,0,1.8-.9,13.648,13.648,0,0,0,2.172-2.307,16.461,16.461,0,0,0,1.839-3.059,7.483,7.483,0,0,0,.769-3.159,1.431,1.431,0,0,0-.451-1.153,1.534,1.534,0,0,0-1.02-.385,2.6,2.6,0,0,0-1.419.468,6.89,6.89,0,0,0-1.4,1.254,14.109,14.109,0,0,0-1.3,1.772,17.7,17.7,0,0,0-1.087,2.005,12.806,12.806,0,0,0-.735,2.022,6.979,6.979,0,0,0-.267,1.772,3.034,3.034,0,0,0,.217,1.12.859.859,0,0,0,.885.552Z" transform="translate(-26.296 -3.225)" fill="#050505"/>
      <path id="Path_37" data-name="Path 37" d="M1445.6,1153.864l-1.17,1.8q-1.6,2.406-2.574,3.928t-1.5,2.473a8.963,8.963,0,0,0-.7,1.471,3.03,3.03,0,0,0-.167.919.981.981,0,0,0,.251.7.849.849,0,0,0,.652.267,3.273,3.273,0,0,0,1.721-.751,14.047,14.047,0,0,0,2.306-2.189,36.5,36.5,0,0,0,2.657-3.511,46.93,46.93,0,0,0,2.775-4.713l4.847-.134q-.3.5-.853,1.34t-1.237,1.822q-.685.987-1.4,2.089t-1.3,2.123a16.829,16.829,0,0,0-.953,1.905,4.011,4.011,0,0,0-.367,1.454.859.859,0,0,0,.2.652.765.765,0,0,0,.535.185,2.6,2.6,0,0,0,1.32-.469,12.313,12.313,0,0,0,1.6-1.22q.853-.752,1.735-1.688t1.672-1.873q.789-.935,1.454-1.771t1.07-1.371l.3.267q-.569.67-1.3,1.589t-1.588,1.922q-.853,1-1.8,1.988a17.536,17.536,0,0,1-1.956,1.755,11.236,11.236,0,0,1-2.022,1.254,4.677,4.677,0,0,1-2.023.485,3.142,3.142,0,0,1-1.27-.236,2.318,2.318,0,0,1-.867-.635,2.737,2.737,0,0,1-.5-.919,3.411,3.411,0,0,1-.167-1.053,3.3,3.3,0,0,1,.1-.8,6.326,6.326,0,0,1,.2-.669l-.067-.067q-.736.836-1.5,1.621a13.223,13.223,0,0,1-1.6,1.4,8.258,8.258,0,0,1-1.7.986,4.5,4.5,0,0,1-1.772.367,2.521,2.521,0,0,1-2.072-.819,3.2,3.2,0,0,1-.669-2.089,4.653,4.653,0,0,1,.3-1.521,15.974,15.974,0,0,1,.769-1.788q.468-.934,1.053-1.905t1.12-1.822q.535-.852.986-1.538t.685-1.087Z" transform="translate(-17.803 -3.262)" fill="#050505"/>
      <path id="Path_38" data-name="Path 38" d="M1461.163,1153.733l.237-.535h2.774l2.839-4.847,4.646-.167-3.008,5.014h4.579l-.267.535h-4.613q-.468.8-1.287,2.106t-1.621,2.708q-.8,1.4-1.4,2.707a5.417,5.417,0,0,0-.6,2.139,1.032,1.032,0,0,0,.315.836,1.338,1.338,0,0,0,.886.267,4.136,4.136,0,0,0,1.839-.485,11.763,11.763,0,0,0,1.955-1.254,18.335,18.335,0,0,0,1.905-1.721q.919-.953,1.735-1.892t1.487-1.755q.668-.818,1.07-1.32l.267.134q-1.137,1.34-2.407,2.941a27.957,27.957,0,0,1-2.741,2.992,14.977,14.977,0,0,1-3.175,2.306,7.7,7.7,0,0,1-3.711.919,2.962,2.962,0,0,1-2.287-.819,3.014,3.014,0,0,1-.752-2.122,4.844,4.844,0,0,1,.184-1.32,9.857,9.857,0,0,1,.651-1.6q.469-.954,1.237-2.323t1.971-3.443Z" transform="translate(-22.92 -2.061)" fill="#050505"/>
      <path id="Path_39" data-name="Path 39" d="M1508.014,1152.177q-1.07,1.706-2.105,3.312t-1.839,2.992q-.8,1.388-1.287,2.457a4.453,4.453,0,0,0-.485,1.7,1.663,1.663,0,0,0,.167.788.616.616,0,0,0,.6.316,2.808,2.808,0,0,0,1.454-.485,11.432,11.432,0,0,0,1.621-1.236,20.33,20.33,0,0,0,1.672-1.7q.835-.952,1.571-1.872t1.321-1.735q.583-.818.953-1.32l.267.1q-.8,1.138-2.005,2.76a30.54,30.54,0,0,1-2.708,3.159,16.133,16.133,0,0,1-2.839,2.39,5.358,5.358,0,0,1-2.908.819,2.631,2.631,0,0,1-2.072-.788,3.168,3.168,0,0,1-.7-2.189,8.07,8.07,0,0,1,1.287-3.761q1.286-2.257,3.259-5.566Zm-1.7-5.215a2.341,2.341,0,1,1,.685,1.656,2.249,2.249,0,0,1-.685-1.655Z" transform="translate(-31.309 -1.309)" fill="#050505"/>
      <path id="Path_40" data-name="Path 40" d="M1507.379,1166.129l6.918-11.833,4.747-.2q-2.407,3.343-4.613,6.819l.067.066q.867-1.1,1.939-2.374a25.063,25.063,0,0,1,2.256-2.356,14.483,14.483,0,0,1,2.44-1.822,4.895,4.895,0,0,1,2.49-.735,3.394,3.394,0,0,1,2.123.652,2.349,2.349,0,0,1,.852,1.989,4.487,4.487,0,0,1-.685,2.273,24.767,24.767,0,0,1-1.521,2.287q-.836,1.121-1.521,2.139a3.356,3.356,0,0,0-.685,1.788.961.961,0,0,0,.184.585.676.676,0,0,0,.585.251,2.951,2.951,0,0,0,1.671-.685,16.86,16.86,0,0,0,1.939-1.688q.768-.769,1.538-1.656t1.438-1.7q.667-.818,1.2-1.5t.836-1.087l.3.167q-1.137,1.5-2.423,3.109t-2.59,2.941a14.008,14.008,0,0,1-2.657,2.19,4.981,4.981,0,0,1-2.624.789,2.794,2.794,0,0,1-2.257-.886,3.41,3.41,0,0,1-.752-2.287,4.38,4.38,0,0,1,.652-2.287,15.686,15.686,0,0,1,1.454-2.039q.8-.952,1.454-1.755a2.45,2.45,0,0,0,.651-1.5.814.814,0,0,0-.9-.936,2.736,2.736,0,0,0-1.47.618,15.13,15.13,0,0,0-1.872,1.621q-1,1-2.038,2.24t-1.956,2.474q-.919,1.237-1.6,2.34a19.233,19.233,0,0,0-1.02,1.8Z" transform="translate(-33.148 -3.226)" fill="#050505"/>
    </g>
    <g id="Group_1" data-name="Group 1" transform="translate(-12804 -2564)">
      <path id="Path_1" data-name="Path 1" d="M1006.116,1580.226a26.955,26.955,0,0,1,.988,3.813c6.411-8.174-.47-14.745-1.734-15.841a.044.044,0,0,0-.067.056c.543.969,2.647,5.027,1.955,8.632a13.081,13.081,0,0,0-2.7-8.145C1001.867,1573.6,1005.589,1578.839,1006.116,1580.226Z" transform="translate(-965.798 -1560.284)" fill="#f81781"/>
      <path id="Path_2" data-name="Path 2" d="M907.618,1639.547a10.431,10.431,0,0,1,1.9,9.171,12.13,12.13,0,0,0,3.094-4.175c1.9-4.312,1.473-10.559-2.621-14.045-2.424-2.064-8.139-3.105-6.772-2.5a14.232,14.232,0,0,1,7.618,9.171,15.714,15.714,0,0,0-8.283-8.3.108.108,0,0,0-.146.085C901.736,1633.4,904.273,1635.34,907.618,1639.547Z" transform="translate(-873.512 -1614.626)" fill="#f81781"/>
      <path id="Path_3" data-name="Path 3" d="M576.209,1721.252a12.235,12.235,0,0,1,6.539,3.116c3.019,2.716,12.992,13.175,23.462,6.508a10.1,10.1,0,0,0,4.7-7.835,8.107,8.107,0,0,0-2.1-6.148.087.087,0,0,0-.152.064c.109,1.767.3,12.356-10.865,12.769l-.042,0c.307-.027,6.9-.673,9.042-6.767,1.745-4.954.212-8.217-.527-9.016a.093.093,0,0,0-.161.07c.08,1.478.2,9.845-7.318,12.139-8.181,2.5-14.9-7.351-22.579-4.989A.044.044,0,0,0,576.209,1721.252Z" transform="translate(-576.17 -1693.059)" fill="#f81781"/>
      <path id="Path_4" data-name="Path 4" d="M840.155,1658.58a.082.082,0,0,0,.119.048c1.222-.666,4.444-1.949,5.333-8.26a11.023,11.023,0,0,0-1.105-5.933,8.263,8.263,0,0,1-.634-1.285.15.15,0,0,1,.189-.2.525.525,0,0,0,.183.031.746.746,0,0,0,.731-.744.729.729,0,0,0-1.224-.525h0s-.819.522.17,2.962.131,6.856-.7,8.218c0,0,1.157-4.951-.118-7.833a.075.075,0,0,0-.144.03h0a4,4,0,0,1-.815,2.573s-1.962,2.123-.967,6.635c0,0,.409,2.659-1,4.2A.078.078,0,0,0,840.155,1658.58Z" transform="translate(-816.805 -1627.102)" fill="#f81781"/>
      <path id="Path_5" data-name="Path 5" d="M738.775,1487.116l.009,0,.008,0a2.828,2.828,0,0,1,1.752-3.069h0a3.892,3.892,0,0,1,1-.19,5.1,5.1,0,0,1,2.569.515,12.178,12.178,0,0,0,7.466.962,19.671,19.671,0,0,0,2.9-.694,6.4,6.4,0,0,1,3.974-.382.124.124,0,0,0,.106-.211c-1.02-.99-4.787-4.334-9.536-4.717a11.107,11.107,0,0,0-7.8,2.428.033.033,0,0,0,0,.051.032.032,0,0,0,.034.008h0a13.449,13.449,0,0,1,9.026.309s-7.29-1.789-11,1.568A2.689,2.689,0,0,0,738.775,1487.116Z" transform="translate(-724.073 -1479.29)" fill="#f81781"/>
      <path id="Path_6" data-name="Path 6" d="M758.592,1536.647a2.292,2.292,0,0,0,2.71-1.407A2.117,2.117,0,0,0,758.592,1536.647Z" transform="translate(-742.454 -1530.168)" fill="#f81781"/>
      <path id="Path_7" data-name="Path 7" d="M755.728,1557.359a2.292,2.292,0,0,0-1.229-2.8A2.118,2.118,0,0,0,755.728,1557.359Z" transform="translate(-738.577 -1547.873)" fill="#f81781"/>
      <path id="Path_8" data-name="Path 8" d="M789.8,1551.048a2.61,2.61,0,0,0,3.085-1.6A2.411,2.411,0,0,0,789.8,1551.048Z" transform="translate(-770.899 -1543.098)" fill="#f81781"/>
      <path id="Path_9" data-name="Path 9" d="M788.238,1576.369a2.61,2.61,0,0,0-1.4-3.182A2.411,2.411,0,0,0,788.238,1576.369Z" transform="translate(-768.036 -1564.84)" fill="#f81781"/>
      <path id="Path_10" data-name="Path 10" d="M828.938,1562.24s2.781.047,3.083-2.553A2.776,2.776,0,0,0,828.938,1562.24Z" transform="translate(-806.578 -1552.526)" fill="#f81781"/>
      <path id="Path_11" data-name="Path 11" d="M830.716,1597.109s.225-2.772-2.351-3.241A2.776,2.776,0,0,0,830.716,1597.109Z" transform="translate(-806.019 -1583.683)" fill="#f81781"/>
      <path id="Path_12" data-name="Path 12" d="M871.226,1559.237h0c.078-.017,2.692-.641,2.381-3.186A2.76,2.76,0,0,0,871.226,1559.237Z" transform="translate(-845.115 -1549.227)" fill="#f81781"/>
      <path id="Path_13" data-name="Path 13" d="M872.378,1597a2.76,2.76,0,0,0,3.027,2.583S874.977,1596.85,872.378,1597Z" transform="translate(-846.175 -1586.528)" fill="#f81781"/>
      <path id="Path_14" data-name="Path 14" d="M909.015,1550.89h0c.064-.028,2.425-1.106,1.656-3.456h0A2.656,2.656,0,0,0,909.015,1550.89Z" transform="translate(-879.445 -1541.376)" fill="#f81781"/>
      <path id="Path_15" data-name="Path 15" d="M912.372,1589.963a2.658,2.658,0,0,0,3.343,1.876S914.8,1589.338,912.372,1589.963Z" transform="translate(-882.632 -1580.034)" fill="#f81781"/>
      <path id="Path_16" data-name="Path 16" d="M963.328,1614.135s-.331-2.993-3.166-2.961A3.006,3.006,0,0,0,963.328,1614.135Z" transform="translate(-926.194 -1599.451)" fill="#f81781"/>
      <path id="Path_17" data-name="Path 17" d="M947.513,1543.828h0a2.525,2.525,0,0,0,1.456-3.04A2.339,2.339,0,0,0,947.513,1543.828Z" transform="translate(-914.55 -1535.32)" fill="#f81781"/>
      <path id="Path_18" data-name="Path 18" d="M972.238,1550.289s2.726.786,3.715-1.694A2.832,2.832,0,0,0,972.238,1550.289Z" transform="translate(-937.23 -1542.256)" fill="#f81781"/>
      <path id="Path_19" data-name="Path 19" d="M952.484,1577.906a2.338,2.338,0,0,0,3.221,1A2.531,2.531,0,0,0,952.484,1577.906Z" transform="translate(-919.195 -1568.89)" fill="#f81781"/>
      <path id="Path_20" data-name="Path 20" d="M679.227,1588.746a2.256,2.256,0,0,1-.217,2.327h0a.037.037,0,0,0,.016.062l.006,0c.49.131,3.487.7,6.078-4.123a4.493,4.493,0,0,1,2.272-2.326l.056-.02q.067-.024.138-.046a.027.027,0,0,0-.009-.052,5.342,5.342,0,0,0-2.362.685,2.52,2.52,0,0,1-1.356.336,1.694,1.694,0,0,1-1.43-.774,4.941,4.941,0,0,1-.755-1.825.429.429,0,0,1,.124-.374,2.5,2.5,0,0,1,.683-.462.035.035,0,0,0-.017-.067c-.482.043-1.516.094-1.588-.253-.095-.455.15-1.137-.527-1.443a2.76,2.76,0,0,1-.328-.172,1.2,1.2,0,0,1-.63-1.13,3.189,3.189,0,0,1,.1-.584,2.13,2.13,0,0,1,.091-.3,4.13,4.13,0,0,0,.3-2.844,12.72,12.72,0,0,1-.542-1.8,8.106,8.106,0,0,1-.127-.94,5.781,5.781,0,0,0-.4,1.906,10.228,10.228,0,0,0,.417,3.06,2.348,2.348,0,0,1,.021,1.135l0,.006a1.38,1.38,0,0,0,.557,1.574,1.082,1.082,0,0,1,.406.6c.1.381.186.765.252,1.153a7.909,7.909,0,0,1,.069,2.418,25.686,25.686,0,0,0-2.075-6.3c-2.637-6.944,1.583-8.965,1.583-8.965s-1.627-2.747-4.549.131c-2.867,2.825-3.64,9.287,2.764,17.54A6,6,0,0,1,679.227,1588.746Z" transform="translate(-664.764 -1560.145)" fill="#f81781"/>
      <path id="Path_21" data-name="Path 21" d="M753.149,1623.116a.413.413,0,0,0,.161.321s.279.271.791-.212a3.52,3.52,0,0,1,3.241-1.1.035.035,0,0,0,.028,0,.04.04,0,0,0,0-.069,3.086,3.086,0,0,0-3.178-.158C753.33,1622.46,753.139,1622.865,753.149,1623.116Z" transform="translate(-737.495 -1608.865)" fill="#f81781"/>
      <path id="Path_22" data-name="Path 22" d="M761.132,1644.582a2.067,2.067,0,0,0,1.586-.048,2.089,2.089,0,0,0,1.358-1.378.045.045,0,0,0-.075-.045,4.846,4.846,0,0,1-2.974,1.332.045.045,0,0,0-.016.086Q761.069,1644.557,761.132,1644.582Z" transform="translate(-744.636 -1628.536)" fill="#f81781"/>
    </g>
  </g>
</svg>
