<svg xmlns="http://www.w3.org/2000/svg" width="167.998" height="39.997" viewBox="0 0 167.998 39.997">
  <g id="logo" transform="translate(-6760 132)">
    <g id="Group_7817" data-name="Group 7817" transform="translate(6796.778 -125.251)">
      <path id="Path_34" data-name="Path 34" d="M1383.878,1138.8a10.04,10.04,0,0,0-2.33.15,4.8,4.8,0,0,0-2.12.963,7.662,7.662,0,0,1,2.483,1.834,4.261,4.261,0,0,1,.978,2.917,3.676,3.676,0,0,1-.709,2.286,5.769,5.769,0,0,1-1.759,1.533,8.781,8.781,0,0,1-2.27.9,12.484,12.484,0,0,1-2.24.36v.06a7.231,7.231,0,0,1,4.195,1.143,3.688,3.688,0,0,1,1.458,3.157,4.81,4.81,0,0,1-.842,2.751,7.957,7.957,0,0,1-2.18,2.15,11.6,11.6,0,0,1-6.3,1.924,6.226,6.226,0,0,1-1.323-.15,3.944,3.944,0,0,1-1.248-.5,2.973,2.973,0,0,1-.917-.887,2.333,2.333,0,0,1-.361-1.323,2.12,2.12,0,0,1,1.976-2.255,2,2,0,0,1,.279,0,2.467,2.467,0,0,1,1.173.271,2.512,2.512,0,0,1,.78.6,6.329,6.329,0,0,0-.977,1.112,2.4,2.4,0,0,0-.466,1.413,1.129,1.129,0,0,0,.376.917,1.518,1.518,0,0,0,1.007.316,3.156,3.156,0,0,0,1.819-.616,6.58,6.58,0,0,0,1.578-1.579,8.5,8.5,0,0,0,1.112-2.165,7.16,7.16,0,0,0,.421-2.376,4.227,4.227,0,0,0-.376-1.895,2.973,2.973,0,0,0-1.007-1.172,3.471,3.471,0,0,0-1.413-.541,4.737,4.737,0,0,0-1.594.03l.12-.271a8.117,8.117,0,0,0,4.451-2,5.335,5.335,0,0,0,1.624-4.044,4.533,4.533,0,0,0-.255-1.549,3.584,3.584,0,0,0-.857-1.308,20.131,20.131,0,0,0-3.1,3.985q-1.293,2.18-2.483,4.375t-2.406,4.24a17.265,17.265,0,0,1-2.857,3.624,12.836,12.836,0,0,1-3.879,2.541,13.81,13.81,0,0,1-5.458.962,9.147,9.147,0,0,1-1.91-.2,5.481,5.481,0,0,1-1.638-.616,3.246,3.246,0,0,1-1.143-1.1,3.1,3.1,0,0,1-.421-1.668,2.429,2.429,0,0,1,.556-1.561,1.908,1.908,0,0,1,1.578-.691,2.051,2.051,0,0,1,1.413.481,1.681,1.681,0,0,1,.541,1.323,1.642,1.642,0,0,1-1.233,1.624,2.165,2.165,0,0,0,.737,1.579,2.539,2.539,0,0,0,1.579.466,5.482,5.482,0,0,0,2.752-.692,8.874,8.874,0,0,0,2.255-1.865,18.932,18.932,0,0,0,1.969-2.706q.931-1.534,1.865-3.233t1.925-3.444a31.094,31.094,0,0,1,2.18-3.323,21.04,21.04,0,0,1,2.616-2.887,12.713,12.713,0,0,1,3.233-2.15,10.307,10.307,0,0,0-1.925-.631,13.363,13.363,0,0,0-3.1-.3,15.158,15.158,0,0,0-5.022.827,13.224,13.224,0,0,0-4.135,2.285,11.218,11.218,0,0,0-2.8,3.428,8.989,8.989,0,0,0-1.038,4.257,4.94,4.94,0,0,0,.2,1.413,3.554,3.554,0,0,0,.572,1.158,2.608,2.608,0,0,0,.977.78,3.265,3.265,0,0,0,1.413.284,3.042,3.042,0,0,0,1.924-.631,5.312,5.312,0,0,0,1.353-1.579,7.849,7.849,0,0,0,.812-2.075,9.129,9.129,0,0,0,.271-2.12,6.461,6.461,0,0,0-.3-1.864,10.653,10.653,0,0,0-.721-1.8l.3-.12q.421.872.752,1.729a6.233,6.233,0,0,1,.331,2.21,8.938,8.938,0,0,1-.436,2.781,7.018,7.018,0,0,1-1.293,2.361,6.287,6.287,0,0,1-5.007,2.255,4.711,4.711,0,0,1-1.91-.376,4.24,4.24,0,0,1-1.459-1.038,4.756,4.756,0,0,1-.932-1.534,5.3,5.3,0,0,1-.331-1.894,7.169,7.169,0,0,1,.722-3.173,9.974,9.974,0,0,1,1.954-2.721,14.173,14.173,0,0,1,2.872-2.195,21.641,21.641,0,0,1,3.476-1.64,22.114,22.114,0,0,1,3.774-1.022,21.441,21.441,0,0,1,3.744-.346,31,31,0,0,1,3.547.2,17.9,17.9,0,0,1,2.737.5,12.655,12.655,0,0,1,2.554-.722,16.981,16.981,0,0,1,3.157-.271Z" transform="translate(-1352.868 -1138.437)" fill="#fff"/>
      <path id="Path_35" data-name="Path 35" d="M1411.807,1157.151q-.692.992-1.548,2t-1.939,2.057a18.121,18.121,0,0,1-4.03,3.007,9.275,9.275,0,0,1-4.361,1.022,4.614,4.614,0,0,1-3.157-.963,3.549,3.549,0,0,1-1.083-2.8,5.5,5.5,0,0,1,.9-3.007,9.626,9.626,0,0,1,2.27-2.466,12.111,12.111,0,0,1,2.979-1.684,8.341,8.341,0,0,1,3.05-.631,5.306,5.306,0,0,1,2.376.465,1.581,1.581,0,0,1,.932,1.519,2.272,2.272,0,0,1-1.022,1.835,10.135,10.135,0,0,1-2.42,1.338,21.356,21.356,0,0,1-2.812.9q-1.414.346-2.225.526a6.191,6.191,0,0,0-.12,1.2,4.766,4.766,0,0,0,.12,1.064,2.443,2.443,0,0,0,.406.917,2.088,2.088,0,0,0,.752.631,2.492,2.492,0,0,0,1.157.241,5.71,5.71,0,0,0,3.037-1.038,22.218,22.218,0,0,0,3.278-2.6,24.957,24.957,0,0,0,1.849-1.986q.8-.962,1.338-1.744Zm-6.616-2.255a.744.744,0,0,0-.631-.842.694.694,0,0,0-.211,0,2.241,2.241,0,0,0-1.428.677,8.637,8.637,0,0,0-1.413,1.623,15.135,15.135,0,0,0-1.128,1.94,6.766,6.766,0,0,0-.6,1.654,8.256,8.256,0,0,0,2.27-.827,7.892,7.892,0,0,0,1.715-1.248,5.019,5.019,0,0,0,1.064-1.474,3.576,3.576,0,0,0,.364-1.5Z" transform="translate(-1365.422 -1142.869)" fill="#fff"/>
      <path id="Path_36" data-name="Path 36" d="M1430.331,1154.055q-.331.481-.857,1.233t-1.128,1.624q-.6.872-1.206,1.819t-1.1,1.85a15.836,15.836,0,0,0-.812,1.684,3.674,3.674,0,0,0-.316,1.323q0,.872.691.872a2.735,2.735,0,0,0,1.49-.6,15.07,15.07,0,0,0,1.879-1.609,30.768,30.768,0,0,0,2.135-2.361q1.112-1.353,2.255-2.856l.18.12q-1.206,1.534-2.345,2.992a28.6,28.6,0,0,1-2.27,2.586,12.35,12.35,0,0,1-2.255,1.82,4.354,4.354,0,0,1-2.3.691,3.026,3.026,0,0,1-1.561-.33,2.1,2.1,0,0,1-.8-.827,2.745,2.745,0,0,1-.3-1.038q-.045-.54-.045-.961l-.09-.06q-.481.571-1.037,1.143a8.689,8.689,0,0,1-1.218,1.037,6.652,6.652,0,0,1-1.384.752,4.138,4.138,0,0,1-1.534.284,2.718,2.718,0,0,1-2.18-.857,4.182,4.182,0,0,1-.737-2.752,6.348,6.348,0,0,1,.662-2.721,8.577,8.577,0,0,1,1.879-2.554,10.207,10.207,0,0,1,2.9-1.91,8.98,8.98,0,0,1,3.7-.753,2.5,2.5,0,0,1,1.789.588,2.723,2.723,0,0,1,.8,1.458h.06l.78-1.561Zm-11.938,9.86a2.894,2.894,0,0,0,1.624-.811,12.3,12.3,0,0,0,1.954-2.076,14.852,14.852,0,0,0,1.654-2.752,6.744,6.744,0,0,0,.692-2.842,1.29,1.29,0,0,0-.406-1.037,1.383,1.383,0,0,0-.917-.346,2.336,2.336,0,0,0-1.277.421,6.185,6.185,0,0,0-1.263,1.128,12.62,12.62,0,0,0-1.173,1.594,15.78,15.78,0,0,0-.977,1.8,11.364,11.364,0,0,0-.661,1.819,6.289,6.289,0,0,0-.241,1.594,2.719,2.719,0,0,0,.2,1.007.771.771,0,0,0,.8.5Z" transform="translate(-1370.646 -1142.869)" fill="#fff"/>
      <path id="Path_36-2" data-name="Path 36" d="M1492.329,1154.055q-.332.481-.858,1.233t-1.127,1.624q-.6.872-1.206,1.819t-1.1,1.85a15.6,15.6,0,0,0-.812,1.684,3.649,3.649,0,0,0-.316,1.323q0,.872.692.872a2.737,2.737,0,0,0,1.49-.6,15.215,15.215,0,0,0,1.879-1.609,30.814,30.814,0,0,0,2.135-2.361q1.112-1.353,2.255-2.856l.18.12q-1.207,1.534-2.345,2.992a28.772,28.772,0,0,1-2.27,2.586,12.4,12.4,0,0,1-2.255,1.82,4.356,4.356,0,0,1-2.3.691,3.026,3.026,0,0,1-1.561-.33,2.1,2.1,0,0,1-.8-.827,2.743,2.743,0,0,1-.3-1.038q-.046-.54-.045-.961l-.09-.06q-.481.571-1.037,1.143a8.718,8.718,0,0,1-1.218,1.037,6.672,6.672,0,0,1-1.383.752,4.143,4.143,0,0,1-1.534.284,2.718,2.718,0,0,1-2.18-.857,4.177,4.177,0,0,1-.737-2.752,6.338,6.338,0,0,1,.662-2.721,8.575,8.575,0,0,1,1.879-2.554,10.2,10.2,0,0,1,2.9-1.91,8.979,8.979,0,0,1,3.7-.753,2.5,2.5,0,0,1,1.789.588,2.722,2.722,0,0,1,.8,1.458h.06l.78-1.561Zm-11.938,9.86a2.891,2.891,0,0,0,1.623-.811,12.274,12.274,0,0,0,1.954-2.076,14.812,14.812,0,0,0,1.654-2.752,6.731,6.731,0,0,0,.692-2.842,1.287,1.287,0,0,0-.406-1.037,1.38,1.38,0,0,0-.917-.346,2.336,2.336,0,0,0-1.277.421,6.189,6.189,0,0,0-1.264,1.128,12.678,12.678,0,0,0-1.172,1.594,15.877,15.877,0,0,0-.978,1.8,11.507,11.507,0,0,0-.661,1.819,6.294,6.294,0,0,0-.241,1.594,2.739,2.739,0,0,0,.2,1.007.772.772,0,0,0,.8.5Z" transform="translate(-1388.832 -1142.869)" fill="red"/>
      <path id="Path_37" data-name="Path 37" d="M1444.627,1153.864l-1.053,1.624q-1.443,2.164-2.316,3.534t-1.354,2.224a8.054,8.054,0,0,0-.631,1.323,2.726,2.726,0,0,0-.15.827.882.882,0,0,0,.226.631.763.763,0,0,0,.587.24,2.942,2.942,0,0,0,1.549-.676,12.637,12.637,0,0,0,2.075-1.969,32.812,32.812,0,0,0,2.391-3.158,42.2,42.2,0,0,0,2.5-4.24l4.36-.12q-.27.451-.767,1.206t-1.113,1.639q-.616.887-1.263,1.879t-1.173,1.91a15.152,15.152,0,0,0-.857,1.714,3.6,3.6,0,0,0-.331,1.308.773.773,0,0,0,.18.587.688.688,0,0,0,.481.166,2.341,2.341,0,0,0,1.188-.421,11.079,11.079,0,0,0,1.443-1.1q.767-.677,1.561-1.519t1.5-1.685q.71-.841,1.308-1.593t.963-1.234l.27.241q-.512.6-1.173,1.429t-1.428,1.729q-.767.9-1.624,1.788a15.792,15.792,0,0,1-1.759,1.578,10.132,10.132,0,0,1-1.819,1.128,4.211,4.211,0,0,1-1.82.436,2.827,2.827,0,0,1-1.143-.213,2.087,2.087,0,0,1-.78-.571,2.458,2.458,0,0,1-.451-.827,3.063,3.063,0,0,1-.15-.947,2.965,2.965,0,0,1,.09-.721,5.743,5.743,0,0,1,.18-.6l-.06-.06q-.662.752-1.354,1.458a11.915,11.915,0,0,1-1.443,1.263,7.425,7.425,0,0,1-1.534.887,4.05,4.05,0,0,1-1.594.331,2.269,2.269,0,0,1-1.864-.737,2.879,2.879,0,0,1-.6-1.879,4.185,4.185,0,0,1,.27-1.369,14.345,14.345,0,0,1,.692-1.609q.421-.841.947-1.714t1.007-1.639q.481-.766.887-1.383t.616-.978Z" transform="translate(-1377.216 -1142.921)" fill="#fff"/>
      <path id="Path_38" data-name="Path 38" d="M1461.028,1153.176l.213-.481h2.5l2.554-4.36,4.18-.151-2.706,4.511h4.12l-.24.481h-4.15q-.421.722-1.158,1.895t-1.458,2.436q-.723,1.263-1.264,2.435a4.873,4.873,0,0,0-.541,1.925.93.93,0,0,0,.284.753,1.2,1.2,0,0,0,.8.24,3.72,3.72,0,0,0,1.654-.436,10.581,10.581,0,0,0,1.759-1.128,16.5,16.5,0,0,0,1.714-1.549q.827-.858,1.561-1.7t1.338-1.579q.6-.736.963-1.187l.24.12q-1.023,1.206-2.165,2.646a25.169,25.169,0,0,1-2.466,2.691,13.469,13.469,0,0,1-2.857,2.075,6.924,6.924,0,0,1-3.338.827,2.664,2.664,0,0,1-2.057-.737,2.711,2.711,0,0,1-.677-1.909,4.361,4.361,0,0,1,.165-1.188,8.871,8.871,0,0,1,.586-1.444q.421-.858,1.113-2.09t1.773-3.1Z" transform="translate(-1384.224 -1141.27)" fill="red"/>
      <path id="Path_39" data-name="Path 39" d="M1507.078,1151.419q-.963,1.535-1.894,2.979t-1.654,2.692q-.722,1.249-1.158,2.21a4.013,4.013,0,0,0-.436,1.534,1.5,1.5,0,0,0,.151.709.555.555,0,0,0,.541.284,2.528,2.528,0,0,0,1.308-.436,10.3,10.3,0,0,0,1.458-1.112,18.277,18.277,0,0,0,1.5-1.534q.751-.857,1.413-1.684t1.188-1.561q.525-.736.857-1.187l.241.09q-.723,1.024-1.8,2.483a27.485,27.485,0,0,1-2.436,2.842,14.521,14.521,0,0,1-2.554,2.15,4.823,4.823,0,0,1-2.616.737,2.368,2.368,0,0,1-1.864-.709,2.85,2.85,0,0,1-.631-1.969,7.265,7.265,0,0,1,1.158-3.383q1.157-2.03,2.932-5.007Zm-1.533-4.691a2.106,2.106,0,1,1,.617,1.49,2.024,2.024,0,0,1-.617-1.489Z" transform="translate(-1395.672 -1140.236)" fill="red"/>
      <path id="Path_40" data-name="Path 40" d="M1507.379,1164.88l6.224-10.645,4.271-.18q-2.166,3.007-4.15,6.135l.06.06q.78-.993,1.744-2.135a22.584,22.584,0,0,1,2.03-2.12,13.041,13.041,0,0,1,2.195-1.639,4.4,4.4,0,0,1,2.24-.661,3.053,3.053,0,0,1,1.91.587,2.113,2.113,0,0,1,.767,1.789,4.036,4.036,0,0,1-.616,2.045,22.319,22.319,0,0,1-1.368,2.057q-.752,1.009-1.369,1.924a3.019,3.019,0,0,0-.616,1.609.864.864,0,0,0,.165.526.608.608,0,0,0,.526.225,2.654,2.654,0,0,0,1.5-.616,15.148,15.148,0,0,0,1.744-1.519q.691-.691,1.383-1.49t1.293-1.534q.6-.736,1.082-1.353t.752-.978l.27.15q-1.022,1.354-2.18,2.8t-2.33,2.646a12.6,12.6,0,0,1-2.391,1.97,4.482,4.482,0,0,1-2.361.71,2.514,2.514,0,0,1-2.03-.8,3.067,3.067,0,0,1-.677-2.057,3.938,3.938,0,0,1,.587-2.057,14.068,14.068,0,0,1,1.308-1.834q.721-.857,1.308-1.579a2.2,2.2,0,0,0,.586-1.353.732.732,0,0,0-.812-.842,2.461,2.461,0,0,0-1.323.556,13.6,13.6,0,0,0-1.684,1.458q-.9.9-1.834,2.015t-1.759,2.225q-.827,1.113-1.443,2.1a17.326,17.326,0,0,0-.917,1.624Z" transform="translate(-1398.198 -1142.87)" fill="red"/>
    </g>
    <path id="Path_21240" data-name="Path 21240" d="M129.224,402.229a5.3,5.3,0,0,1,.88,1.329c.459.917-.468,2.293-.468,2.293a3.328,3.328,0,0,0-.669-1.825,3.249,3.249,0,0,0-1.71-.564s-.334-.153-.344-.382a.625.625,0,0,1,.134-.4,1.935,1.935,0,0,1,1.194-.119,1.961,1.961,0,0,1,.994.435,1.547,1.547,0,0,0-.011-.77m2-10.57a5.161,5.161,0,0,0-2.66-.529,3.846,3.846,0,0,0-2.019,1.016l-.947-.835A4.4,4.4,0,0,1,127,390.5c.668-.181,1.573-.446,1.573-.446S130.8,390.8,131.229,391.659Zm20.4,12.577-.5,5.2c-6.231.346-15.251,4.874-20.2,8.673C134.916,410.484,144.024,407.163,151.631,404.237Zm-5.568-17.39c-3.436-1.792-7.168-3.486-10.789-3.593a12.338,12.338,0,0,0-7.767,2.645c-.11-1.366-1.311-1.68-2.476-1.437A5.157,5.157,0,0,1,127.9,382.7a3.816,3.816,0,0,0-2.285.436c.615-1.469,2.652-1.751,3.606-1.981a9.652,9.652,0,0,0-2.665.259c3.774-5.207,20.458-4.371,24.542,3.474,2.323,4.463.967,7.584-.494,11.931a21.65,21.65,0,0,0-1.38,7.833c-1-2.786-3.1-5.456-3.638-8.407,0,0,.795-4.51-1.559-5.213s-2.446.52-3.638,2.354a16.6,16.6,0,0,0-.906,1.608,30.353,30.353,0,0,0,.058,4.025c.268,1.739,1.717,3.411,1.431,4.863s-.914,1.539-1.621,2.093a10.369,10.369,0,0,0-2.293,2.541,20.431,20.431,0,0,0-.841,1.93,2.971,2.971,0,0,1-1.013-1.414,2.326,2.326,0,0,0-.879-1.261c-.547.749-2.572,4.21-5.14,5.006-.535-.229-2.37-4.28-2.484-4.853s.592-1.529.879-2.274a1.478,1.478,0,0,0-.64-1.863c-.621-.306-.526-.717-.392-.936s.191-.3.191-.3-.822-.363-.5-1.032a4.608,4.608,0,0,0,.288-1.774,10.1,10.1,0,0,0-1.263-.088,1.628,1.628,0,0,1,.787-1.016c.6-.268,1.98.053,2.561-.069s.161-.864.161-.925c.657.4.879.971.4,1.223-.315.165-.736.39-.988.525a3.787,3.787,0,0,1,2.2,1.952,57.267,57.267,0,0,1,1.605,5.56,17.517,17.517,0,0,0,3.955-3.076,6.28,6.28,0,0,0,1.643-3.076s.2-2.419.292-4.771c-.092-.443-.2-.957-.308-1.531-.555-2.862-2.769-5-4.494-7.17a11.206,11.206,0,0,1,1.583-3.2C138.234,383.861,140.561,384.741,146.063,386.846Z" transform="translate(6634.969 -510.117)" fill="#fff" fill-rule="evenodd"/>
  </g>
</svg>
