<svg xmlns="http://www.w3.org/2000/svg" width="230.998" height="40.003" viewBox="0 0 230.998 40.003">
  <g id="logo" transform="translate(-405 -72)">
    <g id="Group_5" data-name="Group 5" transform="translate(-891.868 -1061.437)">
      <path id="Path_34" data-name="Path 34" d="M1394.224,1138.917a13.4,13.4,0,0,0-3.108.2,6.4,6.4,0,0,0-2.828,1.284,10.218,10.218,0,0,1,3.311,2.446,5.683,5.683,0,0,1,1.3,3.89,4.9,4.9,0,0,1-.946,3.048,7.7,7.7,0,0,1-2.346,2.045,11.708,11.708,0,0,1-3.027,1.2,16.648,16.648,0,0,1-2.988.481v.08a9.642,9.642,0,0,1,5.594,1.524,4.918,4.918,0,0,1,1.945,4.211,6.416,6.416,0,0,1-1.123,3.669,10.615,10.615,0,0,1-2.907,2.868,15.473,15.473,0,0,1-8.4,2.567,8.291,8.291,0,0,1-1.765-.2,5.26,5.26,0,0,1-1.664-.662,3.967,3.967,0,0,1-1.223-1.183,3.111,3.111,0,0,1-.481-1.764,2.827,2.827,0,0,1,2.636-3.007,2.7,2.7,0,0,1,.372,0,3.29,3.29,0,0,1,1.564.361,3.347,3.347,0,0,1,1.041.8,8.422,8.422,0,0,0-1.3,1.483,3.207,3.207,0,0,0-.622,1.885,1.506,1.506,0,0,0,.5,1.223,2.025,2.025,0,0,0,1.344.421,4.209,4.209,0,0,0,2.427-.822,8.776,8.776,0,0,0,2.1-2.106,11.333,11.333,0,0,0,1.483-2.887,9.548,9.548,0,0,0,.562-3.168,5.638,5.638,0,0,0-.5-2.527,3.964,3.964,0,0,0-1.343-1.564,4.629,4.629,0,0,0-1.885-.722,6.325,6.325,0,0,0-2.126.04l.16-.361a10.824,10.824,0,0,0,5.936-2.667,7.115,7.115,0,0,0,2.165-5.393,6.044,6.044,0,0,0-.34-2.065,4.778,4.778,0,0,0-1.143-1.744,26.856,26.856,0,0,0-4.131,5.314q-1.724,2.908-3.311,5.835t-3.208,5.655a23.027,23.027,0,0,1-3.81,4.832,17.115,17.115,0,0,1-5.173,3.389,18.417,18.417,0,0,1-7.279,1.283,12.181,12.181,0,0,1-2.547-.26,7.3,7.3,0,0,1-2.185-.822,4.328,4.328,0,0,1-1.524-1.464,4.136,4.136,0,0,1-.562-2.225,3.239,3.239,0,0,1,.742-2.082,2.546,2.546,0,0,1,2.105-.922,2.737,2.737,0,0,1,1.884.641,2.242,2.242,0,0,1,.722,1.764,2.189,2.189,0,0,1-1.644,2.165,2.887,2.887,0,0,0,.983,2.106,3.388,3.388,0,0,0,2.106.622,7.31,7.31,0,0,0,3.67-.922,11.831,11.831,0,0,0,3.007-2.487,25.253,25.253,0,0,0,2.626-3.609q1.242-2.046,2.486-4.311t2.567-4.592a41.457,41.457,0,0,1,2.907-4.431,28.061,28.061,0,0,1,3.489-3.851,16.954,16.954,0,0,1,4.311-2.867,13.748,13.748,0,0,0-2.567-.842,17.816,17.816,0,0,0-4.13-.4,20.216,20.216,0,0,0-6.7,1.1,17.634,17.634,0,0,0-5.515,3.048,14.958,14.958,0,0,0-3.729,4.572,11.987,11.987,0,0,0-1.384,5.677,6.582,6.582,0,0,0,.261,1.885,4.739,4.739,0,0,0,.763,1.544,3.474,3.474,0,0,0,1.3,1.041,4.355,4.355,0,0,0,1.884.379,4.057,4.057,0,0,0,2.567-.842,7.088,7.088,0,0,0,1.8-2.106,10.473,10.473,0,0,0,1.083-2.767,12.166,12.166,0,0,0,.362-2.828,8.62,8.62,0,0,0-.4-2.486,14.2,14.2,0,0,0-.962-2.406l.4-.161q.561,1.163,1,2.306a8.318,8.318,0,0,1,.441,2.947,11.927,11.927,0,0,1-.582,3.709,9.362,9.362,0,0,1-1.725,3.149,8.385,8.385,0,0,1-6.677,3.008,6.281,6.281,0,0,1-2.547-.5,5.654,5.654,0,0,1-1.945-1.384,6.339,6.339,0,0,1-1.243-2.045,7.063,7.063,0,0,1-.441-2.526,9.565,9.565,0,0,1,.962-4.231,13.3,13.3,0,0,1,2.606-3.629,18.9,18.9,0,0,1,3.829-2.927,28.875,28.875,0,0,1,4.636-2.186,29.483,29.483,0,0,1,5.033-1.363,28.606,28.606,0,0,1,4.993-.462,41.364,41.364,0,0,1,4.73.261,23.89,23.89,0,0,1,3.65.662,16.883,16.883,0,0,1,3.406-.962,22.625,22.625,0,0,1,4.211-.361Z" transform="translate(0 0)" fill="#fff"/>
      <path id="Path_35" data-name="Path 35" d="M1417.187,1158.307q-.924,1.324-2.065,2.667t-2.586,2.744a24.169,24.169,0,0,1-5.374,4.01,12.37,12.37,0,0,1-5.816,1.363,6.152,6.152,0,0,1-4.211-1.284,4.734,4.734,0,0,1-1.444-3.73,7.332,7.332,0,0,1,1.2-4.01,12.83,12.83,0,0,1,3.027-3.288,16.148,16.148,0,0,1,3.974-2.246,11.127,11.127,0,0,1,4.068-.842,7.074,7.074,0,0,1,3.168.621,2.108,2.108,0,0,1,1.243,2.025,3.03,3.03,0,0,1-1.363,2.447,13.525,13.525,0,0,1-3.228,1.785,28.482,28.482,0,0,1-3.75,1.2q-1.886.461-2.968.7a8.216,8.216,0,0,0-.161,1.6,6.344,6.344,0,0,0,.161,1.419,3.251,3.251,0,0,0,.541,1.223,2.784,2.784,0,0,0,1,.842,3.321,3.321,0,0,0,1.544.321,7.614,7.614,0,0,0,4.05-1.384,29.643,29.643,0,0,0,4.372-3.469,33.27,33.27,0,0,0,2.466-2.649q1.063-1.283,1.784-2.326Zm-8.823-3.007a.992.992,0,0,0-.842-1.123.927.927,0,0,0-.281,0,2.99,2.99,0,0,0-1.905.9,11.522,11.522,0,0,0-1.885,2.165,20.216,20.216,0,0,0-1.5,2.587,9.008,9.008,0,0,0-.8,2.205,11.035,11.035,0,0,0,3.027-1.1,10.541,10.541,0,0,0,2.286-1.664,6.7,6.7,0,0,0,1.419-1.966,4.771,4.771,0,0,0,.486-2Z" transform="translate(-2.459 -0.823)" fill="#fff"/>
      <path id="Path_36" data-name="Path 36" d="M1435.953,1154.177q-.441.641-1.143,1.644t-1.5,2.166q-.8,1.163-1.608,2.426t-1.464,2.467a21.108,21.108,0,0,0-1.083,2.246,4.9,4.9,0,0,0-.421,1.764q0,1.162.922,1.163a3.65,3.65,0,0,0,1.987-.8,20.135,20.135,0,0,0,2.506-2.146,41.077,41.077,0,0,0,2.848-3.149q1.483-1.8,3.007-3.81l.24.16q-1.608,2.045-3.127,3.99a38.153,38.153,0,0,1-3.028,3.449,16.5,16.5,0,0,1-3.008,2.427,5.809,5.809,0,0,1-3.068.921,4.035,4.035,0,0,1-2.081-.44,2.8,2.8,0,0,1-1.062-1.1,3.66,3.66,0,0,1-.4-1.384q-.06-.721-.061-1.282l-.12-.08q-.641.762-1.383,1.524a11.589,11.589,0,0,1-1.624,1.383,8.871,8.871,0,0,1-1.845,1,5.519,5.519,0,0,1-2.045.379,3.626,3.626,0,0,1-2.907-1.143,5.576,5.576,0,0,1-.983-3.67,8.465,8.465,0,0,1,.883-3.629,11.439,11.439,0,0,1,2.506-3.406,13.618,13.618,0,0,1,3.87-2.547,11.976,11.976,0,0,1,4.933-1,3.334,3.334,0,0,1,2.386.783,3.633,3.633,0,0,1,1.063,1.945h.08l1.041-2.081Zm-15.921,13.15a3.858,3.858,0,0,0,2.165-1.082,16.4,16.4,0,0,0,2.606-2.768,19.8,19.8,0,0,0,2.206-3.67,8.993,8.993,0,0,0,.922-3.79,1.721,1.721,0,0,0-.541-1.383,1.845,1.845,0,0,0-1.224-.462,3.115,3.115,0,0,0-1.7.562,8.256,8.256,0,0,0-1.685,1.5,16.854,16.854,0,0,0-1.564,2.126,21.047,21.047,0,0,0-1.3,2.406,15.166,15.166,0,0,0-.882,2.426,8.386,8.386,0,0,0-.321,2.126,3.624,3.624,0,0,0,.26,1.343,1.029,1.029,0,0,0,1.061.662Z" transform="translate(-3.489 -0.823)" fill="#fff"/>
      <path id="Path_36-2" data-name="Path 36" d="M1497.952,1154.177q-.443.641-1.144,1.644t-1.5,2.166q-.8,1.163-1.608,2.426t-1.464,2.467a20.806,20.806,0,0,0-1.083,2.246,4.863,4.863,0,0,0-.421,1.764q0,1.162.922,1.163a3.652,3.652,0,0,0,1.987-.8,20.306,20.306,0,0,0,2.506-2.146,41.15,41.15,0,0,0,2.847-3.149q1.483-1.8,3.008-3.81l.24.16q-1.61,2.045-3.128,3.99a38.4,38.4,0,0,1-3.027,3.449,16.558,16.558,0,0,1-3.007,2.427,5.811,5.811,0,0,1-3.068.921,4.034,4.034,0,0,1-2.081-.44,2.8,2.8,0,0,1-1.062-1.1,3.656,3.656,0,0,1-.4-1.384q-.061-.721-.061-1.282l-.12-.08q-.641.762-1.383,1.524a11.611,11.611,0,0,1-1.624,1.383,8.891,8.891,0,0,1-1.845,1,5.526,5.526,0,0,1-2.045.379,3.625,3.625,0,0,1-2.907-1.143,5.572,5.572,0,0,1-.983-3.67,8.452,8.452,0,0,1,.883-3.629,11.435,11.435,0,0,1,2.506-3.406,13.6,13.6,0,0,1,3.87-2.547,11.973,11.973,0,0,1,4.933-1,3.337,3.337,0,0,1,2.386.783,3.63,3.63,0,0,1,1.062,1.945h.081l1.041-2.081Zm-15.921,13.15a3.856,3.856,0,0,0,2.165-1.082,16.362,16.362,0,0,0,2.606-2.768,19.755,19.755,0,0,0,2.206-3.67,8.978,8.978,0,0,0,.922-3.79,1.717,1.717,0,0,0-.541-1.383,1.841,1.841,0,0,0-1.223-.462,3.115,3.115,0,0,0-1.7.562,8.263,8.263,0,0,0-1.685,1.5,16.925,16.925,0,0,0-1.564,2.126,21.2,21.2,0,0,0-1.3,2.406,15.356,15.356,0,0,0-.882,2.426,8.381,8.381,0,0,0-.321,2.126,3.646,3.646,0,0,0,.26,1.343,1.03,1.03,0,0,0,1.062.662Z" transform="translate(-7.059 -0.823)" fill="#fff"/>
      <path id="Path_37" data-name="Path 37" d="M1447.548,1153.864l-1.4,2.165q-1.924,2.887-3.088,4.712t-1.805,2.967a10.748,10.748,0,0,0-.842,1.764,3.632,3.632,0,0,0-.2,1.1,1.177,1.177,0,0,0,.3.842,1.018,1.018,0,0,0,.782.321,3.927,3.927,0,0,0,2.065-.9,16.858,16.858,0,0,0,2.767-2.626,43.791,43.791,0,0,0,3.188-4.212,56.307,56.307,0,0,0,3.329-5.655l5.815-.161q-.361.6-1.023,1.608t-1.484,2.185q-.822,1.184-1.684,2.506t-1.564,2.547a20.2,20.2,0,0,0-1.143,2.286,4.813,4.813,0,0,0-.441,1.744,1.031,1.031,0,0,0,.24.782.917.917,0,0,0,.641.222,3.121,3.121,0,0,0,1.584-.562,14.771,14.771,0,0,0,1.925-1.464q1.023-.9,2.081-2.025t2.005-2.247q.946-1.121,1.745-2.124t1.284-1.645l.36.321q-.683.8-1.564,1.906t-1.9,2.306q-1.023,1.2-2.166,2.385a21.021,21.021,0,0,1-2.346,2.1,13.491,13.491,0,0,1-2.426,1.5,5.613,5.613,0,0,1-2.427.582,3.771,3.771,0,0,1-1.524-.284,2.782,2.782,0,0,1-1.04-.762,3.277,3.277,0,0,1-.6-1.1,4.086,4.086,0,0,1-.2-1.263,3.96,3.96,0,0,1,.12-.962,7.629,7.629,0,0,1,.24-.8l-.08-.08q-.883,1-1.805,1.945a15.874,15.874,0,0,1-1.924,1.684,9.906,9.906,0,0,1-2.045,1.183,5.4,5.4,0,0,1-2.126.441,3.025,3.025,0,0,1-2.486-.983,3.838,3.838,0,0,1-.8-2.506,5.584,5.584,0,0,1,.36-1.825,19.143,19.143,0,0,1,.922-2.146q.562-1.121,1.263-2.286t1.343-2.186q.641-1.022,1.183-1.845t.822-1.3Z" transform="translate(-4.779 -0.832)" fill="#fff"/>
      <path id="Path_38" data-name="Path 38" d="M1461.432,1154.841l.284-.641h3.328l3.406-5.815,5.574-.2-3.609,6.016h5.494l-.321.641h-5.535q-.562.962-1.544,2.527t-1.945,3.249q-.964,1.684-1.685,3.248a6.5,6.5,0,0,0-.722,2.567,1.238,1.238,0,0,0,.378,1,1.6,1.6,0,0,0,1.062.321,4.961,4.961,0,0,0,2.206-.582,14.1,14.1,0,0,0,2.345-1.5,21.978,21.978,0,0,0,2.286-2.065q1.1-1.144,2.081-2.27t1.784-2.106q.8-.982,1.284-1.584l.321.161q-1.364,1.608-2.887,3.529a33.569,33.569,0,0,1-3.289,3.589,17.97,17.97,0,0,1-3.81,2.767,9.233,9.233,0,0,1-4.452,1.1,3.554,3.554,0,0,1-2.744-.983,3.616,3.616,0,0,1-.9-2.547,5.816,5.816,0,0,1,.22-1.584,11.832,11.832,0,0,1,.781-1.925q.562-1.144,1.484-2.787t2.365-4.13Z" transform="translate(-6.136 -0.526)" fill="#fff"/>
      <path id="Path_39" data-name="Path 39" d="M1509.878,1153.685q-1.284,2.046-2.526,3.973t-2.206,3.589q-.962,1.666-1.544,2.948a5.349,5.349,0,0,0-.582,2.045,2,2,0,0,0,.2.946.739.739,0,0,0,.722.378,3.369,3.369,0,0,0,1.744-.582,13.717,13.717,0,0,0,1.945-1.483,24.363,24.363,0,0,0,2.006-2.045q1-1.143,1.885-2.246t1.584-2.081q.7-.982,1.143-1.583l.321.12q-.964,1.365-2.406,3.311a36.61,36.61,0,0,1-3.249,3.79,19.351,19.351,0,0,1-3.406,2.868,6.428,6.428,0,0,1-3.489.983,3.157,3.157,0,0,1-2.486-.946,3.8,3.8,0,0,1-.842-2.626,9.683,9.683,0,0,1,1.544-4.512q1.542-2.708,3.91-6.677Zm-2.045-6.256a2.809,2.809,0,1,1,.822,1.987,2.7,2.7,0,0,1-.822-1.986Z" transform="translate(-8.436 -0.334)" fill="#fff"/>
      <path id="Path_40" data-name="Path 40" d="M1507.379,1168.613l8.3-14.2,5.7-.24q-2.888,4.01-5.534,8.181l.08.08q1.04-1.324,2.326-2.848a30.081,30.081,0,0,1,2.707-2.827,17.378,17.378,0,0,1,2.927-2.186,5.873,5.873,0,0,1,2.988-.882,4.072,4.072,0,0,1,2.547.782,2.818,2.818,0,0,1,1.023,2.386,5.384,5.384,0,0,1-.822,2.727,29.709,29.709,0,0,1-1.825,2.744q-1,1.345-1.825,2.567a4.027,4.027,0,0,0-.822,2.146,1.153,1.153,0,0,0,.22.7.811.811,0,0,0,.7.3,3.54,3.54,0,0,0,2-.822,20.207,20.207,0,0,0,2.326-2.026q.921-.922,1.845-1.987t1.725-2.045q.8-.982,1.444-1.8t1-1.3l.36.2q-1.364,1.805-2.907,3.729t-3.108,3.529a16.8,16.8,0,0,1-3.188,2.627,5.977,5.977,0,0,1-3.148.946,3.352,3.352,0,0,1-2.708-1.062,4.091,4.091,0,0,1-.9-2.744,5.254,5.254,0,0,1,.782-2.744,18.8,18.8,0,0,1,1.745-2.446q.962-1.142,1.745-2.105a2.939,2.939,0,0,0,.781-1.8.976.976,0,0,0-1.083-1.123,3.283,3.283,0,0,0-1.764.742,18.153,18.153,0,0,0-2.246,1.945q-1.2,1.2-2.446,2.687t-2.346,2.968q-1.1,1.484-1.924,2.807a23.11,23.11,0,0,0-1.224,2.165Z" transform="translate(-8.906 -0.823)" fill="#fff"/>
    </g>
    <g id="Group_1" data-name="Group 1" transform="translate(405 72)">
      <path id="Path_1" data-name="Path 1" d="M1006.116,1580.226a26.955,26.955,0,0,1,.988,3.813c6.411-8.174-.47-14.745-1.734-15.841a.044.044,0,0,0-.067.056c.543.969,2.647,5.027,1.955,8.632a13.081,13.081,0,0,0-2.7-8.145C1001.867,1573.6,1005.589,1578.839,1006.116,1580.226Z" transform="translate(-965.798 -1560.284)" fill="#fff"/>
      <path id="Path_2" data-name="Path 2" d="M907.618,1639.547a10.431,10.431,0,0,1,1.9,9.171,12.13,12.13,0,0,0,3.094-4.175c1.9-4.312,1.473-10.559-2.621-14.045-2.424-2.064-8.139-3.105-6.772-2.5a14.232,14.232,0,0,1,7.618,9.171,15.714,15.714,0,0,0-8.283-8.3.108.108,0,0,0-.146.085C901.736,1633.4,904.273,1635.34,907.618,1639.547Z" transform="translate(-873.512 -1614.626)" fill="#fff"/>
      <path id="Path_3" data-name="Path 3" d="M576.209,1721.252a12.235,12.235,0,0,1,6.539,3.116c3.019,2.716,12.992,13.175,23.462,6.508a10.1,10.1,0,0,0,4.7-7.835,8.107,8.107,0,0,0-2.1-6.148.087.087,0,0,0-.152.064c.109,1.767.3,12.356-10.865,12.769l-.042,0c.307-.027,6.9-.673,9.042-6.767,1.745-4.954.212-8.217-.527-9.016a.093.093,0,0,0-.161.07c.08,1.478.2,9.845-7.318,12.139-8.181,2.5-14.9-7.351-22.579-4.989A.044.044,0,0,0,576.209,1721.252Z" transform="translate(-576.17 -1693.059)" fill="#fff"/>
      <path id="Path_4" data-name="Path 4" d="M840.155,1658.58a.082.082,0,0,0,.119.048c1.222-.666,4.444-1.949,5.333-8.26a11.023,11.023,0,0,0-1.105-5.933,8.263,8.263,0,0,1-.634-1.285.15.15,0,0,1,.189-.2.525.525,0,0,0,.183.031.746.746,0,0,0,.731-.744.729.729,0,0,0-1.224-.525h0s-.819.522.17,2.962.131,6.856-.7,8.218c0,0,1.157-4.951-.118-7.833a.075.075,0,0,0-.144.03h0a4,4,0,0,1-.815,2.573s-1.962,2.123-.967,6.635c0,0,.409,2.659-1,4.2A.078.078,0,0,0,840.155,1658.58Z" transform="translate(-816.805 -1627.102)" fill="#fff"/>
      <path id="Path_5" data-name="Path 5" d="M738.775,1487.116l.009,0,.008,0a2.828,2.828,0,0,1,1.752-3.069h0a3.892,3.892,0,0,1,1-.19,5.1,5.1,0,0,1,2.569.515,12.178,12.178,0,0,0,7.466.962,19.671,19.671,0,0,0,2.9-.694,6.4,6.4,0,0,1,3.974-.382.124.124,0,0,0,.106-.211c-1.02-.99-4.787-4.334-9.536-4.717a11.107,11.107,0,0,0-7.8,2.428.033.033,0,0,0,0,.051.032.032,0,0,0,.034.008h0a13.449,13.449,0,0,1,9.026.309s-7.29-1.789-11,1.568A2.689,2.689,0,0,0,738.775,1487.116Z" transform="translate(-724.073 -1479.29)" fill="#fff"/>
      <path id="Path_6" data-name="Path 6" d="M758.592,1536.647a2.292,2.292,0,0,0,2.71-1.407A2.117,2.117,0,0,0,758.592,1536.647Z" transform="translate(-742.454 -1530.168)" fill="#fff"/>
      <path id="Path_7" data-name="Path 7" d="M755.728,1557.359a2.292,2.292,0,0,0-1.229-2.8A2.118,2.118,0,0,0,755.728,1557.359Z" transform="translate(-738.577 -1547.873)" fill="#fff"/>
      <path id="Path_8" data-name="Path 8" d="M789.8,1551.048a2.61,2.61,0,0,0,3.085-1.6A2.411,2.411,0,0,0,789.8,1551.048Z" transform="translate(-770.899 -1543.098)" fill="#fff"/>
      <path id="Path_9" data-name="Path 9" d="M788.238,1576.369a2.61,2.61,0,0,0-1.4-3.182A2.411,2.411,0,0,0,788.238,1576.369Z" transform="translate(-768.036 -1564.84)" fill="#fff"/>
      <path id="Path_10" data-name="Path 10" d="M828.938,1562.24s2.781.047,3.083-2.553A2.776,2.776,0,0,0,828.938,1562.24Z" transform="translate(-806.578 -1552.526)" fill="#fff"/>
      <path id="Path_11" data-name="Path 11" d="M830.716,1597.109s.225-2.772-2.351-3.241A2.776,2.776,0,0,0,830.716,1597.109Z" transform="translate(-806.019 -1583.683)" fill="#fff"/>
      <path id="Path_12" data-name="Path 12" d="M871.226,1559.237h0c.078-.017,2.692-.641,2.381-3.186A2.76,2.76,0,0,0,871.226,1559.237Z" transform="translate(-845.115 -1549.227)" fill="#fff"/>
      <path id="Path_13" data-name="Path 13" d="M872.378,1597a2.76,2.76,0,0,0,3.027,2.583S874.977,1596.85,872.378,1597Z" transform="translate(-846.175 -1586.528)" fill="#fff"/>
      <path id="Path_14" data-name="Path 14" d="M909.015,1550.89h0c.064-.028,2.425-1.106,1.656-3.456h0A2.656,2.656,0,0,0,909.015,1550.89Z" transform="translate(-879.445 -1541.376)" fill="#fff"/>
      <path id="Path_15" data-name="Path 15" d="M912.372,1589.963a2.658,2.658,0,0,0,3.343,1.876S914.8,1589.338,912.372,1589.963Z" transform="translate(-882.632 -1580.034)" fill="#fff"/>
      <path id="Path_16" data-name="Path 16" d="M963.328,1614.135s-.331-2.993-3.166-2.961A3.006,3.006,0,0,0,963.328,1614.135Z" transform="translate(-926.194 -1599.451)" fill="#fff"/>
      <path id="Path_17" data-name="Path 17" d="M947.513,1543.828h0a2.525,2.525,0,0,0,1.456-3.04A2.339,2.339,0,0,0,947.513,1543.828Z" transform="translate(-914.55 -1535.32)" fill="#fff"/>
      <path id="Path_18" data-name="Path 18" d="M972.238,1550.289s2.726.786,3.715-1.694A2.832,2.832,0,0,0,972.238,1550.289Z" transform="translate(-937.23 -1542.256)" fill="#fff"/>
      <path id="Path_19" data-name="Path 19" d="M952.484,1577.906a2.338,2.338,0,0,0,3.221,1A2.531,2.531,0,0,0,952.484,1577.906Z" transform="translate(-919.195 -1568.89)" fill="#fff"/>
      <path id="Path_20" data-name="Path 20" d="M679.227,1588.746a2.256,2.256,0,0,1-.217,2.327h0a.037.037,0,0,0,.016.062l.006,0c.49.131,3.487.7,6.078-4.123a4.493,4.493,0,0,1,2.272-2.326l.056-.02q.067-.024.138-.046a.027.027,0,0,0-.009-.052,5.342,5.342,0,0,0-2.362.685,2.52,2.52,0,0,1-1.356.336,1.694,1.694,0,0,1-1.43-.774,4.941,4.941,0,0,1-.755-1.825.429.429,0,0,1,.124-.374,2.5,2.5,0,0,1,.683-.462.035.035,0,0,0-.017-.067c-.482.043-1.516.094-1.588-.253-.095-.455.15-1.137-.527-1.443a2.76,2.76,0,0,1-.328-.172,1.2,1.2,0,0,1-.63-1.13,3.189,3.189,0,0,1,.1-.584,2.13,2.13,0,0,1,.091-.3,4.13,4.13,0,0,0,.3-2.844,12.72,12.72,0,0,1-.542-1.8,8.106,8.106,0,0,1-.127-.94,5.781,5.781,0,0,0-.4,1.906,10.228,10.228,0,0,0,.417,3.06,2.348,2.348,0,0,1,.021,1.135l0,.006a1.38,1.38,0,0,0,.557,1.574,1.082,1.082,0,0,1,.406.6c.1.381.186.765.252,1.153a7.909,7.909,0,0,1,.069,2.418,25.686,25.686,0,0,0-2.075-6.3c-2.637-6.944,1.583-8.965,1.583-8.965s-1.627-2.747-4.549.131c-2.867,2.825-3.64,9.287,2.764,17.54A6,6,0,0,1,679.227,1588.746Z" transform="translate(-664.764 -1560.145)" fill="#fff"/>
      <path id="Path_21" data-name="Path 21" d="M753.149,1623.116a.413.413,0,0,0,.161.321s.279.271.791-.212a3.52,3.52,0,0,1,3.241-1.1.035.035,0,0,0,.028,0,.04.04,0,0,0,0-.069,3.086,3.086,0,0,0-3.178-.158C753.33,1622.46,753.139,1622.865,753.149,1623.116Z" transform="translate(-737.495 -1608.865)" fill="#fff"/>
      <path id="Path_22" data-name="Path 22" d="M761.132,1644.582a2.067,2.067,0,0,0,1.586-.048,2.089,2.089,0,0,0,1.358-1.378.045.045,0,0,0-.075-.045,4.846,4.846,0,0,1-2.974,1.332.045.045,0,0,0-.016.086Q761.069,1644.557,761.132,1644.582Z" transform="translate(-744.636 -1628.536)" fill="#fff"/>
    </g>
  </g>
</svg>
