<svg xmlns="http://www.w3.org/2000/svg" width="178" height="29.999" viewBox="0 0 178 29.999">
  <g id="logo" transform="translate(17252.223 2656.251)">
    <path id="Path" d="M1395.153,1138.917a13.98,13.98,0,0,0-3.178.2,6.608,6.608,0,0,0-2.891,1.284,10.435,10.435,0,0,1,3.386,2.447,5.6,5.6,0,0,1,1.333,3.891,4.829,4.829,0,0,1-.968,3.048,7.816,7.816,0,0,1-2.4,2.045,12.126,12.126,0,0,1-3.1,1.2,17.36,17.36,0,0,1-3.055.48v.08a10.027,10.027,0,0,1,5.72,1.524,4.876,4.876,0,0,1,1.989,4.211,6.316,6.316,0,0,1-1.148,3.669,10.736,10.736,0,0,1-2.973,2.868,16.07,16.07,0,0,1-8.591,2.567,8.669,8.669,0,0,1-1.8-.2,5.448,5.448,0,0,1-1.7-.662,4.013,4.013,0,0,1-1.251-1.183,3.06,3.06,0,0,1-.492-1.765,2.888,2.888,0,0,1,3.075-3.008,3.535,3.535,0,0,1,2.663,1.163,8.495,8.495,0,0,0-1.333,1.484,3.161,3.161,0,0,0-.636,1.885,1.49,1.49,0,0,0,.513,1.223,2.1,2.1,0,0,0,1.374.421,4.367,4.367,0,0,0,2.481-.822,8.873,8.873,0,0,0,2.152-2.106,11.239,11.239,0,0,0,1.517-2.888,9.364,9.364,0,0,0,.575-3.169,5.534,5.534,0,0,0-.513-2.527,3.99,3.99,0,0,0-1.374-1.564,4.793,4.793,0,0,0-1.927-.722,6.6,6.6,0,0,0-2.173.04l.163-.361a11.185,11.185,0,0,0,6.069-2.667,7.036,7.036,0,0,0,2.214-5.393,5.927,5.927,0,0,0-.348-2.065,4.772,4.772,0,0,0-1.169-1.745,26.941,26.941,0,0,0-4.223,5.315q-1.763,2.908-3.386,5.836t-3.28,5.655a23.115,23.115,0,0,1-3.9,4.833,17.546,17.546,0,0,1-5.289,3.389,19.207,19.207,0,0,1-7.443,1.283,12.734,12.734,0,0,1-2.6-.26,7.575,7.575,0,0,1-2.234-.822,4.384,4.384,0,0,1-1.559-1.464,4.066,4.066,0,0,1-.574-2.225,3.2,3.2,0,0,1,.759-2.082,2.628,2.628,0,0,1,2.152-.922,2.837,2.837,0,0,1,1.927.641,2.321,2.321,0,0,1-.943,3.93,2.862,2.862,0,0,0,1.005,2.106,3.519,3.519,0,0,0,2.153.622,7.607,7.607,0,0,0,3.752-.922,12.045,12.045,0,0,0,3.075-2.487,25.287,25.287,0,0,0,2.685-3.609q1.27-2.047,2.542-4.311t2.624-4.593a41.381,41.381,0,0,1,2.972-4.432,28.281,28.281,0,0,1,3.568-3.851,17.369,17.369,0,0,1,4.408-2.868,14.284,14.284,0,0,0-2.624-.842,18.619,18.619,0,0,0-4.223-.4,21.092,21.092,0,0,0-6.848,1.1,18.158,18.158,0,0,0-5.639,3.048,15.039,15.039,0,0,0-3.813,4.573,11.776,11.776,0,0,0-1.415,5.677,6.455,6.455,0,0,0,.267,1.885,4.7,4.7,0,0,0,.78,1.544,3.543,3.543,0,0,0,1.333,1.041,4.538,4.538,0,0,0,1.927.378,4.21,4.21,0,0,0,2.624-.842,7.132,7.132,0,0,0,1.845-2.106,10.335,10.335,0,0,0,1.108-2.767,11.927,11.927,0,0,0,.37-2.828,8.451,8.451,0,0,0-.41-2.486,14.028,14.028,0,0,0-.984-2.406l.41-.161q.574,1.163,1.026,2.306a8.145,8.145,0,0,1,.451,2.947,11.681,11.681,0,0,1-.6,3.71,9.3,9.3,0,0,1-1.763,3.149,8.656,8.656,0,0,1-6.827,3.008,6.547,6.547,0,0,1-2.6-.5,5.781,5.781,0,0,1-1.989-1.385,6.319,6.319,0,0,1-1.271-2.045,6.924,6.924,0,0,1-.451-2.526,9.389,9.389,0,0,1,.984-4.231,13.316,13.316,0,0,1,2.665-3.629,19.285,19.285,0,0,1,3.916-2.927,29.814,29.814,0,0,1,4.74-2.187,30.687,30.687,0,0,1,5.146-1.363,29.864,29.864,0,0,1,5.106-.462,43.263,43.263,0,0,1,4.837.261,24.911,24.911,0,0,1,3.732.662,17.55,17.55,0,0,1,3.482-.962,23.681,23.681,0,0,1,4.305-.362Z" transform="translate(-18605.092 -3794.688)" fill="#173b61"/>
    <path id="Path-2" data-name="Path" d="M1417.67,1158.411q-.944,1.353-2.112,2.727t-2.644,2.805a24.712,24.712,0,0,1-5.495,4.1,12.647,12.647,0,0,1-5.946,1.394,6.291,6.291,0,0,1-4.305-1.313,4.84,4.84,0,0,1-1.476-3.813,7.5,7.5,0,0,1,1.23-4.1,13.124,13.124,0,0,1,3.1-3.363,16.515,16.515,0,0,1,4.063-2.3,11.372,11.372,0,0,1,4.159-.861,7.235,7.235,0,0,1,3.239.635,2.156,2.156,0,0,1,1.271,2.071,3.1,3.1,0,0,1-1.394,2.5,13.821,13.821,0,0,1-3.3,1.825,29.143,29.143,0,0,1-3.835,1.23q-1.928.471-3.034.717a8.442,8.442,0,0,0-.164,1.64,6.5,6.5,0,0,0,.164,1.451,3.33,3.33,0,0,0,.553,1.251,2.847,2.847,0,0,0,1.025.861,3.4,3.4,0,0,0,1.578.328,7.785,7.785,0,0,0,4.141-1.415,30.286,30.286,0,0,0,4.47-3.547,34.044,34.044,0,0,0,2.522-2.708q1.087-1.311,1.824-2.378Zm-9.021-3.075a1.014,1.014,0,0,0-.861-1.148.947.947,0,0,0-.288,0,3.055,3.055,0,0,0-1.948.923,11.769,11.769,0,0,0-1.927,2.213,20.624,20.624,0,0,0-1.538,2.646,9.225,9.225,0,0,0-.82,2.255,11.266,11.266,0,0,0,3.1-1.128,10.762,10.762,0,0,0,2.338-1.7,6.844,6.844,0,0,0,1.451-2.01,4.876,4.876,0,0,0,.5-2.05Z" transform="translate(-18606.887 -3795.858)" fill="#173b61"/>
    <path id="Path-3" data-name="Path" d="M1436.459,1154.188q-.451.656-1.168,1.681t-1.538,2.215q-.82,1.189-1.645,2.48t-1.5,2.523a21.609,21.609,0,0,0-1.108,2.3,5.009,5.009,0,0,0-.43,1.8q0,1.189.943,1.189a3.728,3.728,0,0,0,2.032-.82,20.557,20.557,0,0,0,2.562-2.194,41.936,41.936,0,0,0,2.912-3.22q1.517-1.845,3.075-3.9l.246.163q-1.644,2.091-3.2,4.08a38.963,38.963,0,0,1-3.1,3.527,16.831,16.831,0,0,1-3.075,2.481,5.937,5.937,0,0,1-3.137.942,4.126,4.126,0,0,1-2.128-.45,2.858,2.858,0,0,1-1.087-1.128,3.742,3.742,0,0,1-.41-1.415q-.061-.737-.062-1.311l-.123-.082q-.656.779-1.414,1.559a11.858,11.858,0,0,1-1.661,1.414,9.069,9.069,0,0,1-1.887,1.025,5.641,5.641,0,0,1-2.091.387,3.707,3.707,0,0,1-2.972-1.169,5.7,5.7,0,0,1-1.005-3.752,8.657,8.657,0,0,1,.9-3.711,11.7,11.7,0,0,1,2.562-3.482,13.916,13.916,0,0,1,3.958-2.6,12.249,12.249,0,0,1,5.043-1.026,3.409,3.409,0,0,1,2.44.8,3.712,3.712,0,0,1,1.086,1.989h.082l1.064-2.128Zm-16.279,13.445a3.945,3.945,0,0,0,2.214-1.106,16.766,16.766,0,0,0,2.665-2.831,20.242,20.242,0,0,0,2.256-3.752,9.194,9.194,0,0,0,.943-3.875,1.759,1.759,0,0,0-.553-1.414,1.886,1.886,0,0,0-1.251-.472,3.183,3.183,0,0,0-1.741.574,8.428,8.428,0,0,0-1.723,1.538,17.232,17.232,0,0,0-1.6,2.174,21.524,21.524,0,0,0-1.333,2.46,15.5,15.5,0,0,0-.9,2.48,8.574,8.574,0,0,0-.328,2.174,3.708,3.708,0,0,0,.266,1.373,1.051,1.051,0,0,0,1.084.677Z" transform="translate(-18607.656 -3795.858)" fill="#173b61"/>
    <path id="Path-4" data-name="Path" d="M1498.457,1154.188q-.453.656-1.17,1.681t-1.537,2.215q-.821,1.189-1.644,2.48t-1.5,2.523a21.305,21.305,0,0,0-1.107,2.3,4.979,4.979,0,0,0-.43,1.8q0,1.189.943,1.189a3.731,3.731,0,0,0,2.031-.82,20.757,20.757,0,0,0,2.563-2.194,41.982,41.982,0,0,0,2.911-3.22q1.516-1.845,3.075-3.9l.246.163q-1.646,2.091-3.2,4.08a39.19,39.19,0,0,1-3.1,3.527,16.9,16.9,0,0,1-3.075,2.481,5.94,5.94,0,0,1-3.137.942,4.126,4.126,0,0,1-2.128-.45,2.862,2.862,0,0,1-1.086-1.128,3.74,3.74,0,0,1-.41-1.415q-.062-.737-.062-1.311l-.123-.082q-.656.779-1.414,1.559a11.9,11.9,0,0,1-1.661,1.414,9.091,9.091,0,0,1-1.886,1.025,5.649,5.649,0,0,1-2.091.387,3.706,3.706,0,0,1-2.972-1.169,5.7,5.7,0,0,1-1.005-3.752,8.641,8.641,0,0,1,.9-3.711,11.69,11.69,0,0,1,2.563-3.482,13.9,13.9,0,0,1,3.957-2.6,12.247,12.247,0,0,1,5.043-1.026,3.413,3.413,0,0,1,2.44.8,3.712,3.712,0,0,1,1.086,1.989h.083l1.064-2.128Zm-16.279,13.445a3.942,3.942,0,0,0,2.213-1.106,16.736,16.736,0,0,0,2.665-2.831,20.2,20.2,0,0,0,2.256-3.752,9.175,9.175,0,0,0,.943-3.875,1.755,1.755,0,0,0-.553-1.414,1.882,1.882,0,0,0-1.251-.472,3.185,3.185,0,0,0-1.741.574,8.434,8.434,0,0,0-1.723,1.538,17.29,17.29,0,0,0-1.6,2.174,21.642,21.642,0,0,0-1.333,2.46,15.709,15.709,0,0,0-.9,2.48,8.58,8.58,0,0,0-.328,2.174,3.733,3.733,0,0,0,.266,1.373,1.053,1.053,0,0,0,1.085.677Z" transform="translate(-18610.279 -3795.858)" fill="#f79457"/>
    <path id="Path-5" data-name="Path" d="M1447.811,1153.864l-1.435,2.214q-1.968,2.951-3.158,4.818t-1.846,3.033a10.988,10.988,0,0,0-.861,1.8,3.715,3.715,0,0,0-.205,1.128,1.2,1.2,0,0,0,.308.861,1.041,1.041,0,0,0,.8.328,4.012,4.012,0,0,0,2.112-.922,17.234,17.234,0,0,0,2.829-2.685,44.717,44.717,0,0,0,3.26-4.307,57.522,57.522,0,0,0,3.4-5.782l5.946-.164q-.369.615-1.046,1.644t-1.518,2.235q-.84,1.21-1.722,2.562t-1.6,2.6a20.647,20.647,0,0,0-1.168,2.337,4.916,4.916,0,0,0-.451,1.783,1.054,1.054,0,0,0,.245.8.938.938,0,0,0,.656.227,3.191,3.191,0,0,0,1.62-.575,15.1,15.1,0,0,0,1.968-1.5q1.046-.923,2.128-2.071t2.05-2.3q.968-1.146,1.784-2.172t1.313-1.682l.369.328q-.7.822-1.6,1.949t-1.947,2.358q-1.046,1.229-2.214,2.439a21.552,21.552,0,0,1-2.4,2.152,13.815,13.815,0,0,1-2.481,1.538,5.741,5.741,0,0,1-2.481.595,3.858,3.858,0,0,1-1.558-.29,2.847,2.847,0,0,1-1.064-.779,3.349,3.349,0,0,1-.615-1.128,4.177,4.177,0,0,1-.205-1.291,4.039,4.039,0,0,1,.123-.984,7.885,7.885,0,0,1,.246-.82l-.082-.082q-.9,1.026-1.846,1.989a16.239,16.239,0,0,1-1.968,1.722,10.121,10.121,0,0,1-2.091,1.209,5.52,5.52,0,0,1-2.174.451,3.093,3.093,0,0,1-2.542-1.005,3.926,3.926,0,0,1-.821-2.562,5.7,5.7,0,0,1,.369-1.866,19.562,19.562,0,0,1,.943-2.194q.574-1.146,1.291-2.337t1.374-2.235q.656-1.045,1.209-1.886t.841-1.333Z" transform="translate(-18608.607 -3795.864)" fill="#173b61"/>
    <path id="Path-6" data-name="Path" d="M1461.468,1154.991l.29-.656h3.4l3.482-5.946,5.7-.205-3.69,6.151h5.617l-.328.656h-5.659q-.575.984-1.578,2.584t-1.989,3.322q-.985,1.722-1.723,3.321a6.644,6.644,0,0,0-.738,2.624,1.267,1.267,0,0,0,.387,1.026,1.641,1.641,0,0,0,1.086.328,5.073,5.073,0,0,0,2.256-.595,14.429,14.429,0,0,0,2.4-1.538,22.491,22.491,0,0,0,2.337-2.112q1.128-1.169,2.128-2.322t1.824-2.153q.82-1,1.313-1.619l.328.164q-1.394,1.644-2.952,3.608a34.327,34.327,0,0,1-3.363,3.67,18.371,18.371,0,0,1-3.9,2.829,9.441,9.441,0,0,1-4.552,1.128,3.633,3.633,0,0,1-2.805-1,3.7,3.7,0,0,1-.923-2.6,5.949,5.949,0,0,1,.225-1.62,12.092,12.092,0,0,1,.8-1.969q.574-1.169,1.518-2.85t2.418-4.223Z" transform="translate(-18609.563 -3795.678)" fill="#f79457"/>
    <path id="Path-7" data-name="Path" d="M1510.129,1153.889q-1.312,2.093-2.583,4.063t-2.256,3.67q-.984,1.7-1.579,3.014a5.47,5.47,0,0,0-.6,2.091,2.043,2.043,0,0,0,.205.968.757.757,0,0,0,.738.387,3.448,3.448,0,0,0,1.784-.6,14.059,14.059,0,0,0,1.989-1.517,24.917,24.917,0,0,0,2.051-2.091q1.024-1.168,1.927-2.3t1.62-2.128q.716-1,1.168-1.619l.328.123q-.985,1.4-2.46,3.385a37.476,37.476,0,0,1-3.322,3.875,19.81,19.81,0,0,1-3.482,2.932,6.575,6.575,0,0,1-3.568,1,3.228,3.228,0,0,1-2.542-.967,3.886,3.886,0,0,1-.861-2.685,9.9,9.9,0,0,1,1.578-4.614q1.578-2.768,4-6.827Zm-2.091-6.4a2.872,2.872,0,1,1,.841,2.031,2.759,2.759,0,0,1-.841-2.03Z" transform="translate(-18611.371 -3795.563)" fill="#f79457"/>
    <path id="Path-8" data-name="Path" d="M1507.38,1168.949l8.487-14.516,5.823-.245q-2.953,4.1-5.659,8.365l.082.081q1.064-1.354,2.379-2.912a30.8,30.8,0,0,1,2.768-2.891,17.784,17.784,0,0,1,2.993-2.235,6.008,6.008,0,0,1,3.055-.9,4.163,4.163,0,0,1,2.6.8,2.88,2.88,0,0,1,1.045,2.44,5.5,5.5,0,0,1-.841,2.788,30.393,30.393,0,0,1-1.866,2.805q-1.026,1.375-1.866,2.624a4.116,4.116,0,0,0-.84,2.194,1.176,1.176,0,0,0,.225.718.829.829,0,0,0,.718.307,3.619,3.619,0,0,0,2.05-.84,20.65,20.65,0,0,0,2.379-2.071q.942-.943,1.886-2.031t1.764-2.091q.818-1,1.476-1.846t1.025-1.333l.368.205q-1.394,1.846-2.972,3.813t-3.177,3.608a17.191,17.191,0,0,1-3.26,2.686,6.112,6.112,0,0,1-3.219.968,3.428,3.428,0,0,1-2.769-1.086,4.182,4.182,0,0,1-.922-2.805,5.371,5.371,0,0,1,.8-2.805,19.193,19.193,0,0,1,1.784-2.5q.984-1.168,1.784-2.153a3.006,3.006,0,0,0,.8-1.845,1,1,0,0,0-1.107-1.148,3.356,3.356,0,0,0-1.8.758,18.534,18.534,0,0,0-2.3,1.989q-1.229,1.231-2.5,2.748t-2.4,3.034q-1.128,1.518-1.968,2.87a23.556,23.556,0,0,0-1.251,2.214Z" transform="translate(-18611.656 -3795.859)" fill="#f79457"/>
  </g>
</svg>
